<svg width="1165" height="157" viewBox="0 0 1165 157" fill="none" xmlns="http://www.w3.org/2000/svg">
<path d="M61.8786 127L61.0818 127.604L61.3819 128H61.8786V127ZM34.0021 90.2457L34.7989 89.6414L34.4988 89.2457H34.0021V90.2457ZM30.5398 90.2457V89.2457H29.5398V90.2457H30.5398ZM30.5398 127V128H31.5398V127H30.5398ZM5.85938 127H4.85938V128H5.85938V127ZM5.85938 36.0909V35.0909H4.85938V36.0909H5.85938ZM30.5398 36.0909H31.5398V35.0909H30.5398V36.0909ZM30.5398 70.3594H29.5398V71.3594H30.5398V70.3594ZM33.7358 70.3594V71.3594H34.2312L34.5313 70.9653L33.7358 70.3594ZM59.8366 36.0909V35.0909H59.3413L59.0411 35.485L59.8366 36.0909ZM90.9091 36.0909L91.6927 36.7121L92.9778 35.0909H90.9091V36.0909ZM56.2855 79.7699L55.5019 79.1487L55.0151 79.7627L55.4949 80.3822L56.2855 79.7699ZM92.8622 127V128H94.9015L93.6528 126.388L92.8622 127ZM62.6753 126.396L34.7989 89.6414L33.2054 90.85L61.0818 127.604L62.6753 126.396ZM34.0021 89.2457H30.5398V91.2457H34.0021V89.2457ZM29.5398 90.2457V127H31.5398V90.2457H29.5398ZM30.5398 126H5.85938V128H30.5398V126ZM6.85938 127V36.0909H4.85938V127H6.85938ZM5.85938 37.0909H30.5398V35.0909H5.85938V37.0909ZM29.5398 36.0909V70.3594H31.5398V36.0909H29.5398ZM30.5398 71.3594H33.7358V69.3594H30.5398V71.3594ZM34.5313 70.9653L60.6322 36.6968L59.0411 35.485L32.9403 69.7535L34.5313 70.9653ZM59.8366 37.0909H90.9091V35.0909H59.8366V37.0909ZM90.1254 35.4697L55.5019 79.1487L57.0692 80.3911L91.6927 36.7121L90.1254 35.4697ZM55.4949 80.3822L92.0716 127.612L93.6528 126.388L57.0761 79.1576L55.4949 80.3822ZM92.8622 126H61.8786V128H92.8622V126ZM175.914 107.158L176.784 107.652L176.785 107.651L175.914 107.158ZM159.979 122.916L160.448 123.799L160.451 123.798L159.979 122.916ZM115.146 122.872L114.669 123.751L114.674 123.753L115.146 122.872ZM99.2543 107.069L98.3824 107.559L98.3849 107.563L99.2543 107.069ZM99.2543 55.9773L98.384 55.4847L98.3833 55.486L99.2543 55.9773ZM115.146 40.2191L115.616 41.1015L115.618 41.1007L115.146 40.2191ZM159.979 40.2191L159.507 41.1007L159.51 41.1023L159.979 40.2191ZM175.914 55.9773L175.044 56.4698L175.045 56.4714L175.914 55.9773ZM154.252 67.7848L153.317 68.1384L153.32 68.1472L154.252 67.7848ZM147.905 59.2621L147.33 60.0805L147.34 60.0874L147.905 59.2621ZM127.264 59.2621L127.833 60.0846L127.834 60.0833L127.264 59.2621ZM120.916 67.7848L119.983 67.4248L119.982 67.4288L120.916 67.7848ZM120.916 95.3505L119.981 95.7041L119.984 95.7129L120.916 95.3505ZM127.264 103.873L126.689 104.692L126.699 104.699L127.264 103.873ZM147.905 103.873L148.474 104.696L148.475 104.694L147.905 103.873ZM154.252 95.3505L153.32 94.9905L153.318 94.9945L154.252 95.3505ZM180.818 81.5455C180.818 91.5388 178.875 99.8964 175.044 106.665L176.785 107.651C180.825 100.511 182.818 91.7936 182.818 81.5455H180.818ZM175.045 106.664C171.198 113.433 166.02 118.547 159.507 122.035L160.451 123.798C167.314 120.123 172.76 114.732 176.784 107.652L175.045 106.664ZM159.51 122.033C152.978 125.501 145.684 127.243 137.607 127.243V129.243C145.982 129.243 153.603 127.434 160.448 123.799L159.51 122.033ZM137.607 127.243C129.47 127.243 122.147 125.486 115.618 121.99L114.674 123.753C121.52 127.419 129.171 129.243 137.607 129.243V127.243ZM115.622 121.993C109.137 118.476 103.972 113.346 100.124 106.575L98.3849 107.563C102.408 114.642 107.838 120.047 114.669 123.751L115.622 121.993ZM100.126 106.58C96.3231 99.809 94.3949 91.4795 94.3949 81.5455H92.3949C92.3949 91.7345 94.3729 100.421 98.3824 107.559L100.126 106.58ZM94.3949 81.5455C94.3949 71.5508 96.3236 63.2078 100.125 56.4686L98.3833 55.486C94.3724 62.5962 92.3949 71.2986 92.3949 81.5455H94.3949ZM100.125 56.4698C103.973 49.6706 109.135 44.5579 115.616 41.1015L114.675 39.3368C107.839 42.9826 102.408 48.3754 98.384 55.4847L100.125 56.4698ZM115.618 41.1007C122.147 37.6047 129.47 35.848 137.607 35.848V33.848C129.171 33.848 121.52 35.672 114.674 39.3375L115.618 41.1007ZM137.607 35.848C145.683 35.848 152.976 37.6042 159.507 41.1007L160.451 39.3375C153.605 35.6726 145.984 33.848 137.607 33.848V35.848ZM159.51 41.1023C166.02 44.5591 171.197 49.6717 175.044 56.4698L176.785 55.4847C172.76 48.3742 167.313 42.9814 160.448 39.3359L159.51 41.1023ZM175.045 56.4714C178.875 63.21 180.818 71.5519 180.818 81.5455H182.818C182.818 71.2975 180.825 62.594 176.784 55.4831L175.045 56.4714ZM157.428 81.5455C157.428 76.0183 156.693 71.3001 155.184 67.4224L153.32 68.1472C154.713 71.7269 155.428 76.1825 155.428 81.5455H157.428ZM155.188 67.4313C153.708 63.5167 151.478 60.4955 148.47 58.4368L147.34 60.0874C149.954 61.8757 151.956 64.5363 153.317 68.1383L155.188 67.4313ZM148.479 58.4437C145.498 56.3502 141.854 55.3324 137.607 55.3324V57.3324C141.527 57.3324 144.748 58.2677 147.33 60.0805L148.479 58.4437ZM137.607 55.3324C133.359 55.3324 129.702 56.3503 126.693 58.4408L127.834 60.0833C130.448 58.2676 133.686 57.3324 137.607 57.3324V55.3324ZM126.695 58.4396C123.719 60.4976 121.491 63.5158 119.983 67.4248L121.849 68.1448C123.241 64.5372 125.245 61.8736 127.833 60.0846L126.695 58.4396ZM119.982 67.4288C118.505 71.3044 117.786 76.0201 117.786 81.5455H119.786C119.786 76.1806 120.486 71.7226 121.851 68.1408L119.982 67.4288ZM117.786 81.5455C117.786 87.0712 118.505 91.8005 119.981 95.704L121.852 94.997C120.486 91.3839 119.786 86.9099 119.786 81.5455H117.786ZM119.984 95.7129C121.493 99.5923 123.719 102.606 126.689 104.692L127.838 103.055C125.245 101.234 123.24 98.5661 121.848 94.9881L119.984 95.7129ZM126.699 104.699C129.708 106.757 133.362 107.759 137.607 107.759V105.759C133.683 105.759 130.443 104.837 127.829 103.048L126.699 104.699ZM137.607 107.759C141.851 107.759 145.493 106.757 148.474 104.696L147.336 103.051C144.754 104.836 141.53 105.759 137.607 105.759V107.759ZM148.475 104.694C151.478 102.608 153.707 99.5914 155.187 95.7065L153.318 94.9945C151.957 98.567 149.954 101.232 147.334 103.052L148.475 104.694ZM155.185 95.7105C156.692 91.8047 157.428 87.073 157.428 81.5455H155.428C155.428 86.908 154.713 91.3797 153.32 94.9905L155.185 95.7105ZM190.219 127H189.219V128H190.219V127ZM190.219 108.001L190.077 107.011L189.219 107.134V108.001H190.219ZM192.705 107.646L192.846 108.636L192.86 108.634L192.705 107.646ZM200.206 103.74L199.475 103.058L199.474 103.059L200.206 103.74ZM204.823 93.4861L203.849 93.2595L203.848 93.264L204.823 93.4861ZM206.909 74.2656L205.91 74.2284L205.91 74.2292L206.909 74.2656ZM208.33 36.0909V35.0909H207.366L207.33 36.0537L208.33 36.0909ZM274.203 36.0909H275.203V35.0909H274.203V36.0909ZM274.203 127V128H275.203V127H274.203ZM250.411 127H249.411V128H250.411V127ZM250.411 55.267H251.411V54.267H250.411V55.267ZM231.057 55.267V54.267H230.105L230.058 55.2174L231.057 55.267ZM229.636 83.8537L230.635 83.9039L230.635 83.9033L229.636 83.8537ZM225.375 109.2L224.436 108.856L225.375 109.2ZM191.219 127V108.001H189.219V127H191.219ZM190.36 108.991L192.846 108.636L192.563 106.656L190.077 107.011L190.36 108.991ZM192.86 108.634C196.088 108.128 198.795 106.725 200.938 104.421L199.474 103.059C197.652 105.017 195.359 106.218 192.55 106.658L192.86 108.634ZM200.938 104.422C203.124 102.075 204.715 98.4596 205.798 93.7083L203.848 93.264C202.8 97.864 201.314 101.084 199.475 103.058L200.938 104.422ZM205.797 93.7128C206.913 88.9173 207.612 82.4377 207.909 74.3021L205.91 74.2292C205.615 82.3104 204.923 88.6445 203.849 93.2595L205.797 93.7128ZM207.908 74.3028L209.329 36.1281L207.33 36.0537L205.91 74.2284L207.908 74.3028ZM208.33 37.0909H274.203V35.0909H208.33V37.0909ZM273.203 36.0909V127H275.203V36.0909H273.203ZM274.203 126H250.411V128H274.203V126ZM251.411 127V55.267H249.411V127H251.411ZM250.411 54.267H231.057V56.267H250.411V54.267ZM230.058 55.2174L228.638 83.8041L230.635 83.9033L232.056 55.3167L230.058 55.2174ZM228.638 83.8035C228.108 94.3484 226.696 102.685 224.436 108.856L226.314 109.544C228.671 103.108 230.1 94.5474 230.635 83.9039L228.638 83.8035ZM224.436 108.856C222.189 114.994 218.81 119.327 214.346 121.967L215.364 123.688C220.31 120.764 223.945 116.013 226.314 109.544L224.436 108.856ZM214.346 121.967C209.845 124.627 203.84 126 196.256 126V128C204.06 128 210.454 126.591 215.364 123.688L214.346 121.967ZM196.256 126H190.219V128H196.256V126ZM282.87 127H281.87V128H282.87V127ZM282.87 108.001L282.729 107.011L281.87 107.134V108.001H282.87ZM285.356 107.646L285.497 108.636L285.511 108.634L285.356 107.646ZM292.858 103.74L292.126 103.058L292.126 103.059L292.858 103.74ZM297.474 93.4861L296.5 93.2595L296.499 93.264L297.474 93.4861ZM299.561 74.2656L298.561 74.2284L298.561 74.2292L299.561 74.2656ZM300.981 36.0909V35.0909H300.018L299.982 36.0537L300.981 36.0909ZM366.855 36.0909H367.855V35.0909H366.855V36.0909ZM366.855 127V128H367.855V127H366.855ZM343.062 127H342.062V128H343.062V127ZM343.062 55.267H344.062V54.267H343.062V55.267ZM323.708 55.267V54.267H322.757L322.71 55.2174L323.708 55.267ZM322.288 83.8537L323.287 83.9039L323.287 83.9033L322.288 83.8537ZM318.026 109.2L317.087 108.856L318.026 109.2ZM283.87 127V108.001H281.87V127H283.87ZM283.012 108.991L285.497 108.636L285.215 106.656L282.729 107.011L283.012 108.991ZM285.511 108.634C288.739 108.128 291.447 106.725 293.59 104.421L292.126 103.059C290.304 105.017 288.01 106.218 285.201 106.658L285.511 108.634ZM293.59 104.422C295.775 102.075 297.367 98.4596 298.449 93.7083L296.499 93.264C295.451 97.864 293.965 101.084 292.126 103.058L293.59 104.422ZM298.448 93.7128C299.564 88.9173 300.263 82.4377 300.56 74.3021L298.561 74.2292C298.266 82.3104 297.574 88.6445 296.5 93.2595L298.448 93.7128ZM300.56 74.3028L301.98 36.1281L299.982 36.0537L298.561 74.2284L300.56 74.3028ZM300.981 37.0909H366.855V35.0909H300.981V37.0909ZM365.855 36.0909V127H367.855V36.0909H365.855ZM366.855 126H343.062V128H366.855V126ZM344.062 127V55.267H342.062V127H344.062ZM343.062 54.267H323.708V56.267H343.062V54.267ZM322.71 55.2174L321.289 83.8041L323.287 83.9033L324.707 55.3167L322.71 55.2174ZM321.289 83.8035C320.759 94.3484 319.347 102.685 317.087 108.856L318.965 109.544C321.322 103.108 322.751 94.5474 323.287 83.9039L321.289 83.8035ZM317.087 108.856C314.84 114.994 311.462 119.327 306.997 121.967L308.015 123.688C312.961 120.764 316.597 116.013 318.965 109.544L317.087 108.856ZM306.997 121.967C302.497 124.627 296.492 126 288.907 126V128C296.711 128 303.105 126.591 308.015 123.688L306.997 121.967ZM288.907 126H282.87V128H288.907V126ZM403.442 36.0909V35.0909H402.442V36.0909H403.442ZM434.16 36.0909L435.085 35.7113L434.83 35.0909H434.16V36.0909ZM455.289 87.5824L454.364 87.962L454.618 88.5824H455.289V87.5824ZM456.354 87.5824V88.5824H457.025L457.279 87.962L456.354 87.5824ZM477.484 36.0909V35.0909H476.813L476.558 35.7113L477.484 36.0909ZM508.201 36.0909H509.201V35.0909H508.201V36.0909ZM508.201 127V128H509.201V127H508.201ZM484.053 127H483.053V128H484.053V127ZM484.053 74.4432H485.053V73.4432H484.053V74.4432ZM483.343 74.4432V73.4432H482.66L482.411 74.0795L483.343 74.4432ZM463.101 126.29V127.29H463.785L464.033 126.653L463.101 126.29ZM448.542 126.29L447.609 126.651L447.857 127.29H448.542V126.29ZM428.3 74.0881L429.233 73.7265L428.985 73.0881H428.3V74.0881ZM427.59 74.0881V73.0881H426.59V74.0881H427.59ZM427.59 127V128H428.59V127H427.59ZM403.442 127H402.442V128H403.442V127ZM403.442 37.0909H434.16V35.0909H403.442V37.0909ZM433.235 36.4705L454.364 87.962L456.214 87.2028L435.085 35.7113L433.235 36.4705ZM455.289 88.5824H456.354V86.5824H455.289V88.5824ZM457.279 87.962L478.409 36.4705L476.558 35.7113L455.429 87.2028L457.279 87.962ZM477.484 37.0909H508.201V35.0909H477.484V37.0909ZM507.201 36.0909V127H509.201V36.0909H507.201ZM508.201 126H484.053V128H508.201V126ZM485.053 127V74.4432H483.053V127H485.053ZM484.053 73.4432H483.343V75.4432H484.053V73.4432ZM482.411 74.0795L462.17 125.926L464.033 126.653L484.274 74.8069L482.411 74.0795ZM463.101 125.29H448.542V127.29H463.101V125.29ZM449.474 125.928L429.233 73.7265L427.368 74.4496L447.609 126.651L449.474 125.928ZM428.3 73.0881H427.59V75.0881H428.3V73.0881ZM426.59 74.0881V127H428.59V74.0881H426.59ZM427.59 126H403.442V128H427.59V126ZM404.442 127V36.0909H402.442V127H404.442ZM519.897 36.0909V35.0909H518.897V36.0909H519.897ZM544.578 36.0909H545.578V35.0909H544.578V36.0909ZM544.578 83.6761H543.578V84.6761H544.578V83.6761ZM545.288 83.6761V84.6761H545.818L546.115 84.2379L545.288 83.6761ZM577.603 36.0909V35.0909H577.074L576.776 35.5291L577.603 36.0909ZM598.555 36.0909H599.555V35.0909H598.555V36.0909ZM598.555 127V128H599.555V127H598.555ZM573.875 127H572.875V128H573.875V127ZM573.875 79.2372H574.875V78.2372H573.875V79.2372ZM573.342 79.2372V78.2372H572.816L572.518 78.6706L573.342 79.2372ZM540.494 127V128H541.02L541.318 127.567L540.494 127ZM519.897 127H518.897V128H519.897V127ZM519.897 37.0909H544.578V35.0909H519.897V37.0909ZM543.578 36.0909V83.6761H545.578V36.0909H543.578ZM544.578 84.6761H545.288V82.6761H544.578V84.6761ZM546.115 84.2379L578.431 36.6527L576.776 35.5291L544.461 83.1143L546.115 84.2379ZM577.603 37.0909H598.555V35.0909H577.603V37.0909ZM597.555 36.0909V127H599.555V36.0909H597.555ZM598.555 126H573.875V128H598.555V126ZM574.875 127V79.2372H572.875V127H574.875ZM573.875 78.2372H573.342V80.2372H573.875V78.2372ZM572.518 78.6706L539.67 126.433L541.318 127.567L574.166 79.8039L572.518 78.6706ZM540.494 126H519.897V128H540.494V126ZM520.897 127V36.0909H518.897V127H520.897ZM635.132 36.0909V35.0909H634.132V36.0909H635.132ZM665.849 36.0909L666.774 35.7113L666.52 35.0909H665.849V36.0909ZM686.978 87.5824L686.053 87.962L686.308 88.5824H686.978V87.5824ZM688.044 87.5824V88.5824H688.714L688.969 87.962L688.044 87.5824ZM709.173 36.0909V35.0909H708.502L708.248 35.7113L709.173 36.0909ZM739.89 36.0909H740.89V35.0909H739.89V36.0909ZM739.89 127V128H740.89V127H739.89ZM715.743 127H714.743V128H715.743V127ZM715.743 74.4432H716.743V73.4432H715.743V74.4432ZM715.032 74.4432V73.4432H714.349L714.101 74.0795L715.032 74.4432ZM694.791 126.29V127.29H695.474L695.722 126.653L694.791 126.29ZM680.231 126.29L679.299 126.651L679.547 127.29H680.231V126.29ZM659.99 74.0881L660.922 73.7265L660.675 73.0881H659.99V74.0881ZM659.28 74.0881V73.0881H658.28V74.0881H659.28ZM659.28 127V128H660.28V127H659.28ZM635.132 127H634.132V128H635.132V127ZM635.132 37.0909H665.849V35.0909H635.132V37.0909ZM664.924 36.4705L686.053 87.962L687.904 87.2028L666.774 35.7113L664.924 36.4705ZM686.978 88.5824H688.044V86.5824H686.978V88.5824ZM688.969 87.962L710.098 36.4705L708.248 35.7113L687.119 87.2028L688.969 87.962ZM709.173 37.0909H739.89V35.0909H709.173V37.0909ZM738.89 36.0909V127H740.89V36.0909H738.89ZM739.89 126H715.743V128H739.89V126ZM716.743 127V74.4432H714.743V127H716.743ZM715.743 73.4432H715.032V75.4432H715.743V73.4432ZM714.101 74.0795L693.859 125.926L695.722 126.653L715.964 74.8069L714.101 74.0795ZM694.791 125.29H680.231V127.29H694.791V125.29ZM681.164 125.928L660.922 73.7265L659.057 74.4496L679.299 126.651L681.164 125.928ZM659.99 73.0881H659.28V75.0881H659.99V73.0881ZM658.28 74.0881V127H660.28V74.0881H658.28ZM659.28 126H635.132V128H659.28V126ZM636.132 127V36.0909H634.132V127H636.132ZM751.587 127H750.587V128H751.587V127ZM751.587 36.0909V35.0909H750.587V36.0909H751.587ZM817.105 36.0909H818.105V35.0909H817.105V36.0909ZM817.105 55.9773V56.9773H818.105V55.9773H817.105ZM776.267 55.9773V54.9773H775.267V55.9773H776.267ZM776.267 71.6023H775.267V72.6023H776.267V71.6023ZM813.732 71.6023H814.732V70.6023H813.732V71.6023ZM813.732 91.4886V92.4886H814.732V91.4886H813.732ZM776.267 91.4886V90.4886H775.267V91.4886H776.267ZM776.267 107.114H775.267V108.114H776.267V107.114ZM816.928 107.114H817.928V106.114H816.928V107.114ZM816.928 127V128H817.928V127H816.928ZM752.587 127V36.0909H750.587V127H752.587ZM751.587 37.0909H817.105V35.0909H751.587V37.0909ZM816.105 36.0909V55.9773H818.105V36.0909H816.105ZM817.105 54.9773H776.267V56.9773H817.105V54.9773ZM775.267 55.9773V71.6023H777.267V55.9773H775.267ZM776.267 72.6023H813.732V70.6023H776.267V72.6023ZM812.732 71.6023V91.4886H814.732V71.6023H812.732ZM813.732 90.4886H776.267V92.4886H813.732V90.4886ZM775.267 91.4886V107.114H777.267V91.4886H775.267ZM776.267 108.114H816.928V106.114H776.267V108.114ZM815.928 107.114V127H817.928V107.114H815.928ZM816.928 126H751.587V128H816.928V126ZM829.346 36.0909V35.0909H828.346V36.0909H829.346ZM854.026 36.0909H855.026V35.0909H854.026V36.0909ZM854.026 83.6761H853.026V84.6761H854.026V83.6761ZM854.736 83.6761V84.6761H855.266L855.564 84.2379L854.736 83.6761ZM887.052 36.0909V35.0909H886.522L886.224 35.5291L887.052 36.0909ZM908.003 36.0909H909.003V35.0909H908.003V36.0909ZM908.003 127V128H909.003V127H908.003ZM883.323 127H882.323V128H883.323V127ZM883.323 79.2372H884.323V78.2372H883.323V79.2372ZM882.79 79.2372V78.2372H882.264L881.966 78.6706L882.79 79.2372ZM849.942 127V128H850.468L850.766 127.567L849.942 127ZM829.346 127H828.346V128H829.346V127ZM877.641 11.5881V10.5881H876.656L876.641 11.5729L877.641 11.5881ZM893.089 11.5881L894.089 11.5932L894.094 10.5881H893.089V11.5881ZM886.475 25.4375L887.091 26.2246L887.095 26.222L886.475 25.4375ZM850.963 25.4375L850.343 26.222L850.346 26.2246L850.963 25.4375ZM844.438 11.5881V10.5881H843.443L843.438 11.5829L844.438 11.5881ZM859.708 11.5881L860.708 11.6039L860.724 10.5881H859.708V11.5881ZM861.705 16.7372L860.95 17.3927L860.957 17.4003L860.964 17.4078L861.705 16.7372ZM829.346 37.0909H854.026V35.0909H829.346V37.0909ZM853.026 36.0909V83.6761H855.026V36.0909H853.026ZM854.026 84.6761H854.736V82.6761H854.026V84.6761ZM855.564 84.2379L887.879 36.6527L886.224 35.5291L853.909 83.1143L855.564 84.2379ZM887.052 37.0909H908.003V35.0909H887.052V37.0909ZM907.003 36.0909V127H909.003V36.0909H907.003ZM908.003 126H883.323V128H908.003V126ZM884.323 127V79.2372H882.323V127H884.323ZM883.323 78.2372H882.79V80.2372H883.323V78.2372ZM881.966 78.6706L849.118 126.433L850.766 127.567L883.614 79.8039L881.966 78.6706ZM849.942 126H829.346V128H849.942V126ZM830.346 127V36.0909H828.346V127H830.346ZM877.641 12.5881H893.089V10.5881H877.641V12.5881ZM892.089 11.5829C892.061 17.0614 889.987 21.3864 885.854 24.653L887.095 26.222C891.722 22.5638 894.057 17.6559 894.089 11.5932L892.089 11.5829ZM885.858 24.6504C881.705 27.9053 876.042 29.5866 868.763 29.5866V31.5866C876.34 31.5866 882.485 29.8352 887.091 26.2246L885.858 24.6504ZM868.763 29.5866C861.423 29.5866 855.732 27.9043 851.58 24.6504L850.346 26.2246C854.954 29.8362 861.13 31.5866 868.763 31.5866V29.5866ZM851.583 24.653C847.454 21.3888 845.41 17.0682 845.438 11.5932L843.438 11.5829C843.407 17.6491 845.713 22.5615 850.343 26.222L851.583 24.653ZM844.438 12.5881H859.708V10.5881H844.438V12.5881ZM858.708 11.5722C858.674 13.7114 859.447 15.661 860.95 17.3927L862.461 16.0817C861.241 14.6765 860.683 13.1934 860.708 11.6039L858.708 11.5722ZM860.964 17.4078C862.632 19.2538 865.332 20.0455 868.763 20.0455V18.0455C865.566 18.0455 863.561 17.2983 862.447 16.0667L860.964 17.4078ZM868.763 20.0455C872.057 20.0455 874.662 19.2641 876.297 17.4514L874.812 16.1118C873.725 17.3176 871.803 18.0455 868.763 18.0455V20.0455ZM876.297 17.4514C877.814 15.7703 878.608 13.809 878.641 11.6032L876.641 11.5729C876.616 13.2734 876.019 14.7745 874.812 16.1118L876.297 17.4514ZM919.678 127H918.678V128H919.678V127ZM919.678 36.0909V35.0909H918.678V36.0909H919.678ZM983.598 36.0909H984.598V35.0909H983.598V36.0909ZM983.598 55.9773V56.9773H984.598V55.9773H983.598ZM944.358 55.9773V54.9773H943.358V55.9773H944.358ZM944.358 66.6307H943.358V67.6307H944.358V66.6307ZM973.611 70.315L973.216 71.2336L973.217 71.2344L973.611 70.315ZM986.972 80.7021L986.156 81.2802L986.158 81.2838L986.972 80.7021ZM986.972 112.396L986.151 111.824L986.149 111.828L986.972 112.396ZM973.611 123.138L973.201 122.226L973.2 122.226L973.611 123.138ZM944.358 107.646H943.358V108.646H944.358V107.646ZM961.048 106.181L960.617 105.279L960.612 105.282L961.048 106.181ZM965.665 102.142L964.815 101.615L964.809 101.625L965.665 102.142ZM963.756 88.559L963.093 89.3074L963.098 89.3121L963.756 88.559ZM944.358 85.4517V84.4517H943.358V85.4517H944.358ZM920.678 127V36.0909H918.678V127H920.678ZM919.678 37.0909H983.598V35.0909H919.678V37.0909ZM982.598 36.0909V55.9773H984.598V36.0909H982.598ZM983.598 54.9773H944.358V56.9773H983.598V54.9773ZM943.358 55.9773V66.6307H945.358V55.9773H943.358ZM944.358 67.6307H953.591V65.6307H944.358V67.6307ZM953.591 67.6307C961.12 67.6307 967.654 68.8419 973.216 71.2336L974.006 69.3963C968.144 66.8757 961.332 65.6307 953.591 65.6307V67.6307ZM973.217 71.2344C978.813 73.6284 983.11 76.9825 986.156 81.2802L987.788 80.1239C984.5 75.4846 979.89 71.914 974.004 69.3956L973.217 71.2344ZM986.158 81.2838C989.221 85.5658 990.766 90.6103 990.766 96.4602H992.766C992.766 90.2363 991.115 84.7753 987.785 80.1203L986.158 81.2838ZM990.766 96.4602C990.766 102.31 989.221 107.419 986.151 111.824L987.792 112.968C991.115 108.199 992.766 102.684 992.766 96.4602H990.766ZM986.149 111.828C983.099 116.246 978.798 119.716 973.201 122.226L974.02 124.051C979.906 121.411 984.512 117.72 987.795 112.964L986.149 111.828ZM973.2 122.226C967.642 124.732 961.115 126 953.591 126V128C961.337 128 968.156 126.694 974.022 124.05L973.2 122.226ZM953.591 126H919.678V128H953.591V126ZM944.358 108.646H953.591V106.646H944.358V108.646ZM953.591 108.646C956.655 108.646 959.3 108.141 961.485 107.081L960.612 105.282C958.772 106.175 956.446 106.646 953.591 106.646V108.646ZM961.48 107.084C963.675 106.034 965.372 104.563 966.521 102.659L964.809 101.625C963.887 103.154 962.506 104.376 960.617 105.279L961.48 107.084ZM966.515 102.669C967.686 100.781 968.263 98.6426 968.263 96.2827H966.263C966.263 98.3024 965.774 100.07 964.815 101.615L966.515 102.669ZM968.263 96.2827C968.263 92.8871 966.97 90.0378 964.414 87.8058L963.098 89.3121C965.219 91.1639 966.263 93.4638 966.263 96.2827H968.263ZM964.419 87.8105C961.835 85.5201 958.172 84.4517 953.591 84.4517V86.4517C957.888 86.4517 961.002 87.4548 963.093 89.3074L964.419 87.8105ZM953.591 84.4517H944.358V86.4517H953.591V84.4517ZM943.358 85.4517V107.646H945.358V85.4517H943.358ZM1000.49 36.0909V35.0909H999.488V36.0909H1000.49ZM1025.17 36.0909H1026.17V35.0909H1025.17V36.0909ZM1025.17 83.6761H1024.17V84.6761H1025.17V83.6761ZM1025.88 83.6761V84.6761H1026.41L1026.71 84.2379L1025.88 83.6761ZM1058.19 36.0909V35.0909H1057.66L1057.37 35.5291L1058.19 36.0909ZM1079.15 36.0909H1080.15V35.0909H1079.15V36.0909ZM1079.15 127V128H1080.15V127H1079.15ZM1054.47 127H1053.47V128H1054.47V127ZM1054.47 79.2372H1055.47V78.2372H1054.47V79.2372ZM1053.93 79.2372V78.2372H1053.41L1053.11 78.6706L1053.93 79.2372ZM1021.08 127V128H1021.61L1021.91 127.567L1021.08 127ZM1000.49 127H999.488V128H1000.49V127ZM1000.49 37.0909H1025.17V35.0909H1000.49V37.0909ZM1024.17 36.0909V83.6761H1026.17V36.0909H1024.17ZM1025.17 84.6761H1025.88V82.6761H1025.17V84.6761ZM1026.71 84.2379L1059.02 36.6527L1057.37 35.5291L1025.05 83.1143L1026.71 84.2379ZM1058.19 37.0909H1079.15V35.0909H1058.19V37.0909ZM1078.15 36.0909V127H1080.15V36.0909H1078.15ZM1079.15 126H1054.47V128H1079.15V126ZM1055.47 127V79.2372H1053.47V127H1055.47ZM1054.47 78.2372H1053.93V80.2372H1054.47V78.2372ZM1053.11 78.6706L1020.26 126.433L1021.91 127.567L1054.76 79.8039L1053.11 78.6706ZM1021.08 126H1000.49V128H1021.08V126ZM1001.49 127V36.0909H999.488V127H1001.49ZM1109.11 98.5909H1108.11V99.5909H1109.11V98.5909ZM1110.26 84.7859L1109.3 84.5294L1110.26 84.7859ZM1113.68 77.8168L1114.44 78.4707L1114.44 78.4644L1113.68 77.8168ZM1119.23 73.0227L1119.77 73.8617L1119.78 73.8588L1119.23 73.0227ZM1124.29 69.4272L1123.68 68.6328L1123.67 68.6387L1124.29 69.4272ZM1127.84 65.7429L1127.01 65.1796L1127.01 65.186L1127.01 65.1926L1127.84 65.7429ZM1125.22 54.7788L1124.77 55.6688L1125.22 54.7788ZM1116.74 54.9563L1116.27 54.0777L1116.26 54.0822L1116.74 54.9563ZM1113.5 58.0192L1112.66 57.4823L1112.66 57.4892L1112.65 57.4962L1113.5 58.0192ZM1112.3 62.5469V63.5469H1113.3V62.5469H1112.3ZM1089.58 62.5469L1088.58 62.5378L1088.57 63.5469H1089.58V62.5469ZM1094.02 46.6999L1094.83 47.2817L1094.83 47.2789L1094.02 46.6999ZM1105.56 37.7333L1105.92 38.6634L1105.93 38.6614L1105.56 37.7333ZM1138.32 37.6445L1137.97 38.5809L1137.97 38.5827L1138.32 37.6445ZM1150.08 45.9897L1149.29 46.5997L1149.29 46.6028L1150.08 45.9897ZM1152.52 69.3384L1151.61 68.9231L1151.61 68.9276L1152.52 69.3384ZM1147.42 76.4851L1148.1 77.2118L1148.1 77.2115L1147.42 76.4851ZM1139.83 82.0781L1139.32 81.2137L1139.32 81.2143L1139.83 82.0781ZM1134.45 85.94L1135.12 86.6841L1135.13 86.6765L1134.45 85.94ZM1131.17 90.4233L1132.08 90.831L1132.09 90.825L1131.17 90.4233ZM1130.06 98.5909V99.5909H1131.06V98.5909H1130.06ZM1111.11 124.825L1110.4 125.532L1110.41 125.541L1111.11 124.825ZM1107.51 115.991L1108.51 116L1108.51 115.991L1108.51 115.983L1107.51 115.991ZM1111.11 107.336L1110.41 106.62L1110.4 106.624L1111.11 107.336ZM1128.55 107.336L1127.86 108.055L1127.86 108.06L1128.55 107.336ZM1132.37 115.991L1133.37 116.004L1133.37 115.993L1133.37 115.983L1132.37 115.991ZM1130.55 122.295L1129.7 121.765L1129.7 121.768L1130.55 122.295ZM1126.02 126.778L1126.53 127.64L1126.54 127.634L1126.02 126.778ZM1110.11 98.5909V96.4602H1108.11V98.5909H1110.11ZM1110.11 96.4602C1110.11 91.6171 1110.49 87.8231 1111.23 85.0423L1109.3 84.5294C1108.5 87.5488 1108.11 91.5377 1108.11 96.4602H1110.11ZM1111.23 85.0423C1111.97 82.2466 1113.05 80.0727 1114.44 78.4707L1112.92 77.1628C1111.29 79.0527 1110.09 81.525 1109.3 84.5294L1111.23 85.0423ZM1114.44 78.4644C1115.88 76.7711 1117.66 75.2355 1119.77 73.8617L1118.69 72.1838C1116.42 73.6508 1114.5 75.3113 1112.92 77.1691L1114.44 78.4644ZM1119.78 73.8588C1121.69 72.6039 1123.4 71.3896 1124.9 70.2157L1123.67 68.6387C1122.22 69.7731 1120.56 70.9558 1118.68 72.1867L1119.78 73.8588ZM1124.9 70.2216C1126.48 69.0138 1127.74 67.7067 1128.68 66.2932L1127.01 65.1926C1126.22 66.3833 1125.12 67.5324 1123.68 68.6328L1124.9 70.2216ZM1128.67 66.3062C1129.67 64.8293 1130.17 63.1512 1130.17 61.304H1128.17C1128.17 62.7712 1127.78 64.0524 1127.01 65.1796L1128.67 66.3062ZM1130.17 61.304C1130.17 59.6573 1129.78 58.1657 1128.95 56.8637L1127.26 57.9317C1127.86 58.8788 1128.17 59.9914 1128.17 61.304H1130.17ZM1128.95 56.8637C1128.14 55.5839 1127.05 54.5897 1125.68 53.8887L1124.77 55.6688C1125.82 56.2107 1126.65 56.9625 1127.26 57.9317L1128.95 56.8637ZM1125.68 53.8887C1124.31 53.1889 1122.81 52.8466 1121.18 52.8466V54.8466C1122.52 54.8466 1123.71 55.1257 1124.77 55.6688L1125.68 53.8887ZM1121.18 52.8466C1119.42 52.8466 1117.78 53.2557 1116.27 54.0777L1117.22 55.8349C1118.43 55.1773 1119.75 54.8466 1121.18 54.8466V52.8466ZM1116.26 54.0822C1114.78 54.9039 1113.58 56.0417 1112.66 57.4823L1114.35 58.556C1115.09 57.3925 1116.05 56.4883 1117.23 55.8305L1116.26 54.0822ZM1112.65 57.4962C1111.74 58.9744 1111.3 60.6693 1111.3 62.5469H1113.3C1113.3 60.9917 1113.66 59.6681 1114.36 58.5422L1112.65 57.4962ZM1112.3 61.5469H1089.58V63.5469H1112.3V61.5469ZM1090.58 62.556C1090.64 56.1886 1092.08 51.1243 1094.83 47.2817L1093.2 46.1181C1090.15 50.384 1088.64 55.8843 1088.58 62.5378L1090.58 62.556ZM1094.83 47.2789C1097.62 43.3578 1101.31 40.4883 1105.92 38.6634L1105.19 36.8033C1100.22 38.7662 1096.22 41.8744 1093.2 46.1209L1094.83 47.2789ZM1105.93 38.6614C1110.59 36.7904 1115.73 35.848 1121.36 35.848V33.848C1115.51 33.848 1110.11 34.8292 1105.19 36.8052L1105.93 38.6614ZM1121.36 35.848C1127.6 35.848 1133.13 36.7659 1137.97 38.5809L1138.67 36.7082C1133.56 34.7945 1127.79 33.848 1121.36 33.848V35.848ZM1137.97 38.5827C1142.79 40.3607 1146.55 43.0385 1149.29 46.5997L1150.87 45.3797C1147.87 41.4835 1143.79 38.5979 1138.66 36.7064L1137.97 38.5827ZM1149.29 46.6028C1152 50.0951 1153.39 54.4988 1153.39 59.8835H1155.39C1155.39 54.1414 1153.9 49.2825 1150.87 45.3766L1149.29 46.6028ZM1153.39 59.8835C1153.39 63.3487 1152.78 66.354 1151.61 68.9231L1153.43 69.7537C1154.74 66.8778 1155.39 63.5798 1155.39 59.8835H1153.39ZM1151.61 68.9276C1150.45 71.4993 1148.83 73.7748 1146.73 75.7586L1148.1 77.2115C1150.39 75.0524 1152.17 72.5635 1153.43 69.7492L1151.61 68.9276ZM1146.73 75.7583C1144.63 77.7412 1142.17 79.5607 1139.32 81.2137L1140.33 82.9425C1143.29 81.222 1145.88 79.3128 1148.1 77.2118L1146.73 75.7583ZM1139.32 81.2143C1137.14 82.4847 1135.29 83.8129 1133.78 85.2035L1135.13 86.6765C1136.52 85.4037 1138.25 84.1573 1140.33 82.9419L1139.32 81.2143ZM1133.79 85.1959C1132.24 86.5876 1131.05 88.1969 1130.25 90.0216L1132.09 90.825C1132.77 89.2761 1133.77 87.8966 1135.12 86.684L1133.79 85.1959ZM1130.26 90.0156C1129.45 91.8338 1129.06 93.9932 1129.06 96.4602H1131.06C1131.06 94.1924 1131.42 92.3271 1132.08 90.8309L1130.26 90.0156ZM1129.06 96.4602V98.5909H1131.06V96.4602H1129.06ZM1130.06 97.5909H1109.11V99.5909H1130.06V97.5909ZM1119.94 127.42C1116.77 127.42 1114.07 126.324 1111.8 124.109L1110.41 125.541C1113.05 128.12 1116.25 129.42 1119.94 129.42V127.42ZM1111.81 124.118C1109.58 121.883 1108.48 119.197 1108.51 116L1106.51 115.983C1106.48 119.711 1107.78 122.914 1110.4 125.532L1111.81 124.118ZM1108.51 115.983C1108.48 112.883 1109.57 110.256 1111.81 108.047L1110.4 106.624C1107.79 109.209 1106.48 112.353 1106.51 116L1108.51 115.983ZM1111.8 108.051C1114.07 105.837 1116.77 104.74 1119.94 104.74V102.74C1116.25 102.74 1113.05 104.041 1110.41 106.62L1111.8 108.051ZM1119.94 104.74C1122.92 104.74 1125.55 105.826 1127.86 108.055L1129.25 106.616C1126.59 104.051 1123.47 102.74 1119.94 102.74V104.74ZM1127.86 108.06C1130.19 110.276 1131.34 112.906 1131.37 116L1133.37 115.983C1133.34 112.33 1131.95 109.189 1129.24 106.612L1127.86 108.06ZM1131.37 115.979C1131.34 118.11 1130.78 120.031 1129.7 121.765L1131.4 122.825C1132.68 120.77 1133.34 118.489 1133.37 116.004L1131.37 115.979ZM1129.7 121.768C1128.63 123.499 1127.23 124.88 1125.5 125.922L1126.54 127.634C1128.54 126.427 1130.16 124.819 1131.4 122.821L1129.7 121.768ZM1125.51 125.916C1123.81 126.919 1121.95 127.42 1119.94 127.42V129.42C1122.31 129.42 1124.51 128.827 1126.53 127.64L1125.51 125.916Z" fill="#1F1F1F"/>
<path d="M66.8786 121L39.0021 84.2457H35.5398V121H10.8594V30.0909H35.5398V64.3594H38.7358L64.8366 30.0909H95.9091L61.2855 73.7699L97.8622 121H66.8786ZM186.818 75.5455C186.818 85.6662 184.85 94.2037 180.914 101.158C176.979 108.083 171.667 113.335 164.979 116.916C158.291 120.467 150.833 122.243 142.607 122.243C134.321 122.243 126.834 120.453 120.146 116.872C113.487 113.261 108.19 107.994 104.254 101.069C100.348 94.1149 98.3949 85.607 98.3949 75.5455C98.3949 65.4247 100.348 56.902 104.254 49.9773C108.19 43.023 113.487 37.7702 120.146 34.2191C126.834 30.6384 134.321 28.848 142.607 28.848C150.833 28.848 158.291 30.6384 164.979 34.2191C171.667 37.7702 176.979 43.023 180.914 49.9773C184.85 56.902 186.818 65.4247 186.818 75.5455ZM161.428 75.5455C161.428 70.1004 160.703 65.5135 159.252 61.7848C157.832 58.0265 155.716 55.1856 152.905 53.2621C150.123 51.3089 146.69 50.3324 142.607 50.3324C138.523 50.3324 135.075 51.3089 132.264 53.2621C129.482 55.1856 127.366 58.0265 125.916 61.7848C124.496 65.5135 123.786 70.1004 123.786 75.5455C123.786 80.9905 124.496 85.5922 125.916 89.3505C127.366 93.0792 129.482 95.9201 132.264 97.8732C135.075 99.7968 138.523 100.759 142.607 100.759C146.69 100.759 150.123 99.7968 152.905 97.8732C155.716 95.9201 157.832 93.0792 159.252 89.3505C160.703 85.5922 161.428 80.9905 161.428 75.5455ZM195.219 121V102.001L197.705 101.646C200.723 101.173 203.224 99.8707 205.206 97.7401C207.219 95.5798 208.758 92.1618 209.823 87.4861C210.918 82.7809 211.613 76.3741 211.909 68.2656L213.33 30.0909H279.203V121H255.411V49.267H236.057L234.636 77.8537C234.104 88.4479 232.683 96.8967 230.375 103.2C228.067 109.503 224.56 114.046 219.855 116.827C215.15 119.609 208.95 121 201.256 121H195.219ZM287.87 121V102.001L290.356 101.646C293.374 101.173 295.875 99.8707 297.858 97.7401C299.87 95.5798 301.409 92.1618 302.474 87.4861C303.569 82.7809 304.265 76.3741 304.561 68.2656L305.981 30.0909H371.855V121H348.062V49.267H328.708L327.288 77.8537C326.755 88.4479 325.335 96.8967 323.026 103.2C320.718 109.503 317.211 114.046 312.506 116.827C307.801 119.609 301.601 121 293.907 121H287.87ZM408.442 30.0909H439.16L460.289 81.5824H461.354L482.484 30.0909H513.201V121H489.053V68.4432H488.343L468.101 120.29H453.542L433.3 68.0881H432.59V121H408.442V30.0909ZM524.897 30.0909H549.578V77.6761H550.288L582.603 30.0909H603.555V121H578.875V73.2372H578.342L545.494 121H524.897V30.0909ZM640.132 30.0909H670.849L691.978 81.5824H693.044L714.173 30.0909H744.89V121H720.743V68.4432H720.032L699.791 120.29H685.231L664.99 68.0881H664.28V121H640.132V30.0909ZM756.587 121V30.0909H822.105V49.9773H781.267V65.6023H818.732V85.4886H781.267V101.114H821.928V121H756.587ZM834.346 30.0909H859.026V77.6761H859.736L892.052 30.0909H913.003V121H888.323V73.2372H887.79L854.942 121H834.346V30.0909ZM882.641 5.58806H898.089C898.059 11.3587 895.854 15.9751 891.475 19.4375C887.095 22.8703 881.191 24.5866 873.763 24.5866C866.276 24.5866 860.343 22.8703 855.963 19.4375C851.584 15.9751 849.408 11.3587 849.438 5.58806H864.708C864.678 7.45241 865.344 9.16879 866.705 10.7372C868.096 12.276 870.449 13.0455 873.763 13.0455C876.93 13.0455 879.194 12.2908 880.555 10.7816C881.916 9.27237 882.612 7.54119 882.641 5.58806ZM924.678 121V30.0909H988.598V49.9773H949.358V60.6307H958.591C966.226 60.6307 972.899 61.8588 978.611 64.315C984.352 66.7712 988.805 70.2335 991.972 74.7021C995.168 79.1706 996.766 84.4233 996.766 90.4602C996.766 96.4972 995.168 101.809 991.972 106.396C988.805 110.983 984.352 114.564 978.611 117.138C972.899 119.713 966.226 121 958.591 121H924.678ZM949.358 101.646H958.591C961.55 101.646 964.036 101.158 966.048 100.181C968.09 99.2049 969.629 97.8584 970.665 96.142C971.73 94.4257 972.263 92.4725 972.263 90.2827C972.263 87.1754 971.094 84.6009 968.756 82.5589C966.418 80.4875 963.03 79.4517 958.591 79.4517H949.358V101.646ZM1005.49 30.0909H1030.17V77.6761H1030.88L1063.19 30.0909H1084.15V121H1059.47V73.2372H1058.93L1026.08 121H1005.49V30.0909ZM1114.11 92.5909V90.4602C1114.11 85.5774 1114.49 81.686 1115.26 78.7859C1116.03 75.8858 1117.17 73.5627 1118.68 71.8168C1120.19 70.0412 1122.04 68.4432 1124.23 67.0227C1126.12 65.7798 1127.81 64.5813 1129.29 63.4272C1130.8 62.2731 1131.98 61.045 1132.84 59.7429C1133.73 58.4408 1134.17 56.9612 1134.17 55.304C1134.17 53.8243 1133.82 52.5223 1133.11 51.3977C1132.4 50.2732 1131.44 49.4002 1130.22 48.7788C1129.01 48.1573 1127.66 47.8466 1126.18 47.8466C1124.58 47.8466 1123.1 48.2165 1121.74 48.9563C1120.41 49.6961 1119.33 50.7171 1118.5 52.0192C1117.7 53.3213 1117.3 54.8305 1117.3 56.5469H1094.58C1094.64 50.0365 1096.12 44.7541 1099.02 40.6999C1101.92 36.6161 1105.76 33.6272 1110.56 31.7333C1115.35 29.8098 1120.62 28.848 1126.36 28.848C1132.69 28.848 1138.35 29.7802 1143.32 31.6445C1148.29 33.4793 1152.21 36.261 1155.08 39.9897C1157.95 43.6888 1159.39 48.3201 1159.39 53.8835C1159.39 57.4643 1158.76 60.6159 1157.52 63.3384C1156.31 66.0314 1154.61 68.4136 1152.42 70.4851C1150.26 72.527 1147.73 74.3913 1144.83 76.0781C1142.7 77.321 1140.9 78.6083 1139.45 79.94C1138 81.2421 1136.91 82.7365 1136.17 84.4233C1135.43 86.0805 1135.06 88.0928 1135.06 90.4602V92.5909H1114.11ZM1124.94 122.42C1121.51 122.42 1118.56 121.222 1116.11 118.825C1113.68 116.398 1112.48 113.454 1112.51 109.991C1112.48 106.618 1113.68 103.733 1116.11 101.336C1118.56 98.9386 1121.51 97.7401 1124.94 97.7401C1128.19 97.7401 1131.07 98.9386 1133.55 101.336C1136.07 103.733 1137.34 106.618 1137.37 109.991C1137.34 112.3 1136.73 114.401 1135.55 116.295C1134.39 118.159 1132.89 119.654 1131.02 120.778C1129.16 121.873 1127.13 122.42 1124.94 122.42Z" fill="#1F1F1F"/>
</svg>
