<svg width="348" height="138" viewBox="0 0 348 138" fill="none" xmlns="http://www.w3.org/2000/svg">
<path d="M65.1827 56L64.3859 56.6043L64.686 57H65.1827V56ZM52.694 39.5341L53.4908 38.9298L53.1907 38.5341H52.694V39.5341ZM51.1429 39.5341V38.5341H50.1429V39.5341H51.1429ZM51.1429 56V57H52.1429V56H51.1429ZM40.0861 56H39.0861V57H40.0861V56ZM40.0861 15.2727V14.2727H39.0861V15.2727H40.0861ZM51.1429 15.2727H52.1429V14.2727H51.1429V15.2727ZM51.1429 30.625H50.1429V31.625H51.1429V30.625ZM52.5747 30.625V31.625H53.0701L53.3703 31.2309L52.5747 30.625ZM64.2679 15.2727V14.2727H63.7725L63.4724 14.6668L64.2679 15.2727ZM78.1884 15.2727L78.972 15.8939L80.2571 14.2727H78.1884V15.2727ZM62.677 34.8409L61.8933 34.2197L61.4066 34.8337L61.8864 35.4532L62.677 34.8409ZM79.0634 56V57H81.1026L79.854 55.3877L79.0634 56ZM65.9794 55.3957L53.4908 38.9298L51.8973 40.1384L64.3859 56.6043L65.9794 55.3957ZM52.694 38.5341H51.1429V40.5341H52.694V38.5341ZM50.1429 39.5341V56H52.1429V39.5341H50.1429ZM51.1429 55H40.0861V57H51.1429V55ZM41.0861 56V15.2727H39.0861V56H41.0861ZM40.0861 16.2727H51.1429V14.2727H40.0861V16.2727ZM50.1429 15.2727V30.625H52.1429V15.2727H50.1429ZM51.1429 31.625H52.5747V29.625H51.1429V31.625ZM53.3703 31.2309L65.0634 15.8786L63.4724 14.6668L51.7792 30.0191L53.3703 31.2309ZM64.2679 16.2727H78.1884V14.2727H64.2679V16.2727ZM77.4047 14.6515L61.8933 34.2197L63.4607 35.4621L78.972 15.8939L77.4047 14.6515ZM61.8864 35.4532L78.2727 56.6123L79.854 55.3877L63.4676 34.2286L61.8864 35.4532ZM79.0634 55H65.1827V57H79.0634V55ZM116.271 47.1108L117.14 47.6049L117.141 47.6033L116.271 47.1108ZM109.132 54.1705L109.601 55.0537L109.604 55.0521L109.132 54.1705ZM89.0463 54.1506L88.5696 55.0297L88.5743 55.0322L89.0463 54.1506ZM81.927 47.071L81.0551 47.5608L81.0576 47.5652L81.927 47.071ZM81.927 24.1818L81.0567 23.6893L81.056 23.6905L81.927 24.1818ZM89.0463 17.1222L89.5169 18.0045L89.5183 18.0038L89.0463 17.1222ZM109.132 17.1222L108.66 18.0038L108.663 18.0054L109.132 17.1222ZM116.271 24.1818L115.4 24.6744L115.401 24.676L116.271 24.1818ZM106.566 29.4716L105.631 29.8251L105.634 29.834L106.566 29.4716ZM103.722 25.6534L103.148 26.4719L103.158 26.4787L103.722 25.6534ZM94.4753 25.6534L95.0441 26.4759L95.0459 26.4747L94.4753 25.6534ZM91.6315 29.4716L90.6986 29.1116L90.6971 29.1156L91.6315 29.4716ZM91.6315 41.821L90.6961 42.1746L90.6995 42.1835L91.6315 41.821ZM94.4753 45.6392L93.9006 46.4577L93.9106 46.4645L94.4753 45.6392ZM103.722 45.6392L104.291 46.4617L104.293 46.4605L103.722 45.6392ZM106.566 41.821L105.633 41.4611L105.632 41.465L106.566 41.821ZM117.916 35.6364C117.916 40.043 117.059 43.6879 115.4 46.6183L117.141 47.6033C119.009 44.3026 119.916 40.2979 119.916 35.6364H117.916ZM115.401 46.6167C113.726 49.5635 111.481 51.7783 108.66 53.2889L109.604 55.0521C112.775 53.3543 115.289 50.8627 117.14 47.6049L115.401 46.6167ZM108.663 53.2872C105.823 54.795 102.645 55.5568 99.1088 55.5568V57.5568C102.943 57.5568 106.448 56.7278 109.601 55.0537L108.663 53.2872ZM99.1088 55.5568C95.5458 55.5568 92.3562 54.7884 89.5183 53.269L88.5743 55.0322C91.7288 56.7211 95.2476 57.5568 99.1088 57.5568V55.5568ZM89.523 53.2715C86.713 51.7478 84.4723 49.5254 82.7964 46.5769L81.0576 47.5652C82.9082 50.8211 85.4137 53.3184 88.5697 55.0297L89.523 53.2715ZM82.7989 46.5813C81.1521 43.6495 80.302 40.0165 80.302 35.6364H78.302C78.302 40.2714 79.2019 44.2614 81.0551 47.5608L82.7989 46.5813ZM80.302 35.6364C80.302 31.2284 81.1526 27.5899 82.798 24.6731L81.056 23.6905C79.2014 26.9783 78.302 30.9762 78.302 35.6364H80.302ZM82.7973 24.6744C84.4728 21.7139 86.7115 19.5007 89.5169 18.0045L88.5757 16.2398C85.4152 17.9254 82.9077 20.4187 81.0567 23.6893L82.7973 24.6744ZM89.5183 18.0038C92.3562 16.4843 95.5458 15.7159 99.1088 15.7159V13.7159C95.2476 13.7159 91.7288 14.5516 88.5743 16.2406L89.5183 18.0038ZM99.1088 15.7159C102.644 15.7159 105.821 16.4838 108.66 18.0038L109.604 16.2406C106.45 14.5522 102.945 13.7159 99.1088 13.7159V15.7159ZM108.663 18.0054C111.481 19.5019 113.726 21.715 115.4 24.6744L117.141 23.6893C115.289 20.4176 112.774 17.9242 109.601 16.2389L108.663 18.0054ZM115.401 24.676C117.059 27.5921 117.916 31.2295 117.916 35.6364H119.916C119.916 30.975 119.009 26.9761 117.14 23.6877L115.401 24.676ZM108.541 35.6364C108.541 33.1149 108.206 30.9286 107.498 29.1091L105.634 29.834C106.226 31.3555 106.541 33.2791 106.541 35.6364H108.541ZM107.502 29.118C106.806 27.2781 105.744 25.825 104.287 24.8281L103.158 26.4787C104.22 27.2053 105.053 28.2977 105.631 29.8251L107.502 29.118ZM104.297 24.835C102.851 23.8196 101.102 23.3409 99.1088 23.3409V25.3409C100.775 25.3409 102.102 25.7372 103.148 26.4718L104.297 24.835ZM99.1088 23.3409C97.1155 23.3409 95.3619 23.8198 93.9047 24.8321L95.0459 26.4747C96.1076 25.737 97.443 25.3409 99.1088 25.3409V23.3409ZM93.9065 24.8309C92.4658 25.8272 91.4064 27.2772 90.6986 29.1116L92.5645 29.8316C93.156 28.2986 93.9924 27.2031 95.0441 26.4759L93.9065 24.8309ZM90.6971 29.1156C90.0047 30.9329 89.677 33.1167 89.677 35.6364H91.677C91.677 33.2772 91.9856 31.3512 92.566 29.8276L90.6971 29.1156ZM89.677 35.6364C89.677 38.1564 90.0049 40.3456 90.6961 42.1746L92.567 41.4675C91.9855 39.929 91.677 37.9951 91.677 35.6364H89.677ZM90.6995 42.1835C91.4078 44.0046 92.466 45.4503 93.9007 46.4576L95.0499 44.8208C93.9921 44.0781 93.1546 42.9784 92.5636 41.4586L90.6995 42.1835ZM93.9106 46.4645C95.3672 47.4611 97.1185 47.9318 99.1088 47.9318V45.9318C97.44 45.9318 96.1024 45.5408 95.04 44.8139L93.9106 46.4645ZM99.1088 47.9318C101.099 47.9318 102.846 47.4612 104.291 46.4617L103.154 44.8167C102.107 45.5407 100.778 45.9318 99.1088 45.9318V47.9318ZM104.293 46.4605C105.744 45.4525 106.805 44.0037 107.501 42.177L105.632 41.465C105.055 42.9793 104.22 44.076 103.152 44.8179L104.293 46.4605ZM107.499 42.181C108.206 40.3498 108.541 38.1583 108.541 35.6364H106.541C106.541 37.9932 106.226 39.9248 105.633 41.4611L107.499 42.181ZM122.679 56H121.679V57H122.679V56ZM122.679 47.4886L122.538 46.4987L121.679 46.6213V47.4886H122.679ZM123.793 47.3295L123.934 48.3196L123.948 48.3175L123.793 47.3295ZM127.154 45.5795L126.422 44.8979L126.421 44.8983L127.154 45.5795ZM129.222 40.9858L128.248 40.7591L128.247 40.7636L129.222 40.9858ZM130.156 32.375L129.157 32.3378L129.157 32.3385L130.156 32.375ZM130.793 15.2727V14.2727H129.829L129.793 15.2355L130.793 15.2727ZM160.304 15.2727H161.304V14.2727H160.304V15.2727ZM160.304 56V57H161.304V56H160.304ZM149.645 56H148.645V57H149.645V56ZM149.645 23.8636H150.645V22.8636H149.645V23.8636ZM140.975 23.8636V22.8636H140.023L139.976 23.814L140.975 23.8636ZM140.338 36.6705L141.337 36.7207L141.337 36.7201L140.338 36.6705ZM138.429 48.0256L137.49 47.6817L138.429 48.0256ZM133.716 54.1307L133.207 53.2699L133.716 54.1307ZM123.679 56V47.4886H121.679V56H123.679ZM122.821 48.4786L123.934 48.3195L123.651 46.3396L122.538 46.4987L122.821 48.4786ZM123.948 48.3175C125.509 48.0725 126.837 47.3879 127.886 46.2608L126.421 44.8983C125.694 45.6803 124.781 46.1624 123.638 46.3416L123.948 48.3175ZM127.885 46.2612C128.96 45.1074 129.702 43.3783 130.197 41.208L128.247 40.7636C127.787 42.7827 127.15 44.1161 126.422 44.8979L127.885 46.2612ZM130.196 41.2124C130.707 39.0142 131.022 36.0713 131.156 32.4115L129.157 32.3385C129.025 35.9439 128.717 38.7415 128.248 40.7591L130.196 41.2124ZM131.156 32.4122L131.792 15.3099L129.793 15.2355L129.157 32.3378L131.156 32.4122ZM130.793 16.2727H160.304V14.2727H130.793V16.2727ZM159.304 15.2727V56H161.304V15.2727H159.304ZM160.304 55H149.645V57H160.304V55ZM150.645 56V23.8636H148.645V56H150.645ZM149.645 22.8636H140.975V24.8636H149.645V22.8636ZM139.976 23.814L139.339 36.6208L141.337 36.7201L141.973 23.9133L139.976 23.814ZM139.339 36.6202C139.103 41.3172 138.476 44.9904 137.49 47.6817L139.368 48.3694C140.451 45.413 141.096 41.5162 141.337 36.7207L139.339 36.6202ZM137.49 47.6817C136.517 50.3398 135.074 52.1661 133.207 53.2699L134.225 54.9915C136.574 53.6028 138.273 51.3591 139.368 48.3694L137.49 47.6817ZM133.207 53.2699C131.304 54.3952 128.721 55 125.384 55V57C128.94 57 131.913 56.3586 134.225 54.9915L133.207 53.2699ZM125.384 55H122.679V57H125.384V55ZM164.187 56H163.187V57H164.187V56ZM164.187 47.4886L164.046 46.4987L163.187 46.6213V47.4886H164.187ZM165.301 47.3295L165.442 48.3196L165.456 48.3175L165.301 47.3295ZM168.661 45.5795L167.93 44.8979L167.929 44.8983L168.661 45.5795ZM170.73 40.9858L169.756 40.7591L169.755 40.7636L170.73 40.9858ZM171.664 32.375L170.665 32.3378L170.665 32.3385L171.664 32.375ZM172.301 15.2727V14.2727H171.337L171.301 15.2355L172.301 15.2727ZM201.812 15.2727H202.812V14.2727H201.812V15.2727ZM201.812 56V57H202.812V56H201.812ZM191.153 56H190.153V57H191.153V56ZM191.153 23.8636H192.153V22.8636H191.153V23.8636ZM182.482 23.8636V22.8636H181.531L181.484 23.814L182.482 23.8636ZM181.846 36.6705L182.845 36.7207L182.845 36.7201L181.846 36.6705ZM179.937 48.0256L178.998 47.6817L179.937 48.0256ZM175.224 54.1307L174.715 53.2699L175.224 54.1307ZM165.187 56V47.4886H163.187V56H165.187ZM164.328 48.4786L165.442 48.3195L165.159 46.3396L164.046 46.4987L164.328 48.4786ZM165.456 48.3175C167.017 48.0725 168.345 47.3879 169.393 46.2608L167.929 44.8983C167.202 45.6803 166.288 46.1624 165.146 46.3416L165.456 48.3175ZM169.393 46.2612C170.468 45.1074 171.21 43.3783 171.705 41.208L169.755 40.7636C169.295 42.7827 168.658 44.1161 167.93 44.8979L169.393 46.2612ZM171.704 41.2124C172.215 39.0142 172.53 36.0713 172.664 32.4115L170.665 32.3385C170.533 35.9439 170.225 38.7415 169.756 40.7591L171.704 41.2124ZM172.664 32.4122L173.3 15.3099L171.301 15.2355L170.665 32.3378L172.664 32.4122ZM172.301 16.2727H201.812V14.2727H172.301V16.2727ZM200.812 15.2727V56H202.812V15.2727H200.812ZM201.812 55H191.153V57H201.812V55ZM192.153 56V23.8636H190.153V56H192.153ZM191.153 22.8636H182.482V24.8636H191.153V22.8636ZM181.484 23.814L180.847 36.6208L182.845 36.7201L183.481 23.9133L181.484 23.814ZM180.847 36.6202C180.611 41.3172 179.983 44.9904 178.998 47.6817L180.876 48.3694C181.959 45.413 182.604 41.5162 182.845 36.7207L180.847 36.6202ZM178.998 47.6817C178.025 50.3398 176.582 52.1661 174.715 53.2699L175.733 54.9915C178.082 53.6028 179.781 51.3591 180.876 48.3694L178.998 47.6817ZM174.715 53.2699C172.812 54.3952 170.229 55 166.891 55V57C170.448 57 173.42 56.3586 175.733 54.9915L174.715 53.2699ZM166.891 55H164.187V57H166.891V55ZM218.203 15.2727V14.2727H217.203V15.2727H218.203ZM231.965 15.2727L232.89 14.8931L232.635 14.2727H231.965V15.2727ZM241.431 38.3409L240.505 38.7205L240.76 39.3409H241.431V38.3409ZM241.908 38.3409V39.3409H242.578L242.833 38.7205L241.908 38.3409ZM251.374 15.2727V14.2727H250.703L250.449 14.8931L251.374 15.2727ZM265.135 15.2727H266.135V14.2727H265.135V15.2727ZM265.135 56V57H266.135V56H265.135ZM254.317 56H253.317V57H254.317V56ZM254.317 32.4545H255.317V31.4545H254.317V32.4545ZM253.999 32.4545V31.4545H253.316L253.067 32.0909L253.999 32.4545ZM244.931 55.6818V56.6818H245.614L245.862 56.0455L244.931 55.6818ZM238.408 55.6818L237.475 56.0433L237.723 56.6818H238.408V55.6818ZM229.34 32.2955L230.272 31.9339L230.024 31.2955H229.34V32.2955ZM229.021 32.2955V31.2955H228.021V32.2955H229.021ZM229.021 56V57H230.021V56H229.021ZM218.203 56H217.203V57H218.203V56ZM218.203 16.2727H231.965V14.2727H218.203V16.2727ZM231.04 15.6524L240.505 38.7205L242.356 37.9613L232.89 14.8931L231.04 15.6524ZM241.431 39.3409H241.908V37.3409H241.431V39.3409ZM242.833 38.7205L252.299 15.6524L250.449 14.8931L240.983 37.9613L242.833 38.7205ZM251.374 16.2727H265.135V14.2727H251.374V16.2727ZM264.135 15.2727V56H266.135V15.2727H264.135ZM265.135 55H254.317V57H265.135V55ZM255.317 56V32.4545H253.317V56H255.317ZM254.317 31.4545H253.999V33.4545H254.317V31.4545ZM253.067 32.0909L243.999 55.3181L245.862 56.0455L254.93 32.8182L253.067 32.0909ZM244.931 54.6818H238.408V56.6818H244.931V54.6818ZM239.34 55.3203L230.272 31.9339L228.407 32.657L237.475 56.0433L239.34 55.3203ZM229.34 31.2955H229.021V33.2955H229.34V31.2955ZM228.021 32.2955V56H230.021V32.2955H228.021ZM229.021 55H218.203V57H229.021V55ZM219.203 56V15.2727H217.203V56H219.203ZM270.375 15.2727V14.2727H269.375V15.2727H270.375ZM281.432 15.2727H282.432V14.2727H281.432V15.2727ZM281.432 36.5909H280.432V37.5909H281.432V36.5909ZM281.75 36.5909V37.5909H282.28L282.577 37.1527L281.75 36.5909ZM296.227 15.2727V14.2727H295.698L295.4 14.7109L296.227 15.2727ZM305.614 15.2727H306.614V14.2727H305.614V15.2727ZM305.614 56V57H306.614V56H305.614ZM294.557 56H293.557V57H294.557V56ZM294.557 34.6023H295.557V33.6023H294.557V34.6023ZM294.318 34.6023V33.6023H293.792L293.494 34.0356L294.318 34.6023ZM279.602 56V57H280.128L280.426 56.5667L279.602 56ZM270.375 56H269.375V57H270.375V56ZM270.375 16.2727H281.432V14.2727H270.375V16.2727ZM280.432 15.2727V36.5909H282.432V15.2727H280.432ZM281.432 37.5909H281.75V35.5909H281.432V37.5909ZM282.577 37.1527L297.055 15.8345L295.4 14.7109L280.923 36.0291L282.577 37.1527ZM296.227 16.2727H305.614V14.2727H296.227V16.2727ZM304.614 15.2727V56H306.614V15.2727H304.614ZM305.614 55H294.557V57H305.614V55ZM295.557 56V34.6023H293.557V56H295.557ZM294.557 33.6023H294.318V35.6023H294.557V33.6023ZM293.494 34.0356L278.778 55.4333L280.426 56.5667L295.142 35.1689L293.494 34.0356ZM279.602 55H270.375V57H279.602V55ZM271.375 56V15.2727H269.375V56H271.375ZM56.6017 83.2727V82.2727H55.6017V83.2727H56.6017ZM70.3631 83.2727L71.2882 82.8931L71.0337 82.2727H70.3631V83.2727ZM79.829 106.341L78.9038 106.721L79.1584 107.341H79.829V106.341ZM80.3063 106.341V107.341H80.9768L81.2314 106.721L80.3063 106.341ZM89.7722 83.2727V82.2727H89.1016L88.847 82.8931L89.7722 83.2727ZM103.534 83.2727H104.534V82.2727H103.534V83.2727ZM103.534 124V125H104.534V124H103.534ZM92.7154 124H91.7154V125H92.7154V124ZM92.7154 100.455H93.7154V99.4545H92.7154V100.455ZM92.3972 100.455V99.4545H91.7141L91.4656 100.091L92.3972 100.455ZM83.329 123.682V124.682H84.0121L84.2605 124.045L83.329 123.682ZM76.8063 123.682L75.8739 124.043L76.1215 124.682H76.8063V123.682ZM67.7381 100.295L68.6704 99.9339L68.4229 99.2955H67.7381V100.295ZM67.4199 100.295V99.2955H66.4199V100.295H67.4199ZM67.4199 124V125H68.4199V124H67.4199ZM56.6017 124H55.6017V125H56.6017V124ZM56.6017 84.2727H70.3631V82.2727H56.6017V84.2727ZM69.4379 83.6524L78.9038 106.721L80.7541 105.961L71.2882 82.8931L69.4379 83.6524ZM79.829 107.341H80.3063V105.341H79.829V107.341ZM81.2314 106.721L90.6973 83.6524L88.847 82.8931L79.3811 105.961L81.2314 106.721ZM89.7722 84.2727H103.534V82.2727H89.7722V84.2727ZM102.534 83.2727V124H104.534V83.2727H102.534ZM103.534 123H92.7154V125H103.534V123ZM93.7154 124V100.455H91.7154V124H93.7154ZM92.7154 99.4545H92.3972V101.455H92.7154V99.4545ZM91.4656 100.091L82.3975 123.318L84.2605 124.045L93.3287 100.818L91.4656 100.091ZM83.329 122.682H76.8063V124.682H83.329V122.682ZM77.7386 123.32L68.6704 99.9339L66.8057 100.657L75.8739 124.043L77.7386 123.32ZM67.7381 99.2955H67.4199V101.295H67.7381V99.2955ZM66.4199 100.295V124H68.4199V100.295H66.4199ZM67.4199 123H56.6017V125H67.4199V123ZM57.6017 124V83.2727H55.6017V124H57.6017ZM108.774 124H107.774V125H108.774V124ZM108.774 83.2727V82.2727H107.774V83.2727H108.774ZM138.126 83.2727H139.126V82.2727H138.126V83.2727ZM138.126 92.1818V93.1818H139.126V92.1818H138.126ZM119.83 92.1818V91.1818H118.83V92.1818H119.83ZM119.83 99.1818H118.83V100.182H119.83V99.1818ZM136.615 99.1818H137.615V98.1818H136.615V99.1818ZM136.615 108.091V109.091H137.615V108.091H136.615ZM119.83 108.091V107.091H118.83V108.091H119.83ZM119.83 115.091H118.83V116.091H119.83V115.091ZM138.046 115.091H139.046V114.091H138.046V115.091ZM138.046 124V125H139.046V124H138.046ZM109.774 124V83.2727H107.774V124H109.774ZM108.774 84.2727H138.126V82.2727H108.774V84.2727ZM137.126 83.2727V92.1818H139.126V83.2727H137.126ZM138.126 91.1818H119.83V93.1818H138.126V91.1818ZM118.83 92.1818V99.1818H120.83V92.1818H118.83ZM119.83 100.182H136.615V98.1818H119.83V100.182ZM135.615 99.1818V108.091H137.615V99.1818H135.615ZM136.615 107.091H119.83V109.091H136.615V107.091ZM118.83 108.091V115.091H120.83V108.091H118.83ZM119.83 116.091H138.046V114.091H119.83V116.091ZM137.046 115.091V124H139.046V115.091H137.046ZM138.046 123H108.774V125H138.046V123ZM143.61 83.2727V82.2727H142.61V83.2727H143.61ZM154.666 83.2727H155.666V82.2727H154.666V83.2727ZM154.666 104.591H153.666V105.591H154.666V104.591ZM154.985 104.591V105.591H155.514L155.812 105.153L154.985 104.591ZM169.462 83.2727V82.2727H168.932L168.635 82.7109L169.462 83.2727ZM178.848 83.2727H179.848V82.2727H178.848V83.2727ZM178.848 124V125H179.848V124H178.848ZM167.791 124H166.791V125H167.791V124ZM167.791 102.602H168.791V101.602H167.791V102.602ZM167.553 102.602V101.602H167.027L166.729 102.036L167.553 102.602ZM152.837 124V125H153.363L153.661 124.567L152.837 124ZM143.61 124H142.61V125H143.61V124ZM165.246 72.2955V71.2955H164.261L164.246 72.2803L165.246 72.2955ZM172.166 72.2955L173.166 72.3006L173.171 71.2955H172.166V72.2955ZM169.203 78.5L169.82 79.2871L169.823 79.2845L169.203 78.5ZM153.294 78.5L152.674 79.2845L152.677 79.2871L153.294 78.5ZM150.371 72.2955V71.2955H149.376L149.371 72.2903L150.371 72.2955ZM157.212 72.2955L158.212 72.3113L158.228 71.2955H157.212V72.2955ZM158.107 74.6023L157.351 75.2577L157.358 75.2653L157.365 75.2728L158.107 74.6023ZM143.61 84.2727H154.666V82.2727H143.61V84.2727ZM153.666 83.2727V104.591H155.666V83.2727H153.666ZM154.666 105.591H154.985V103.591H154.666V105.591ZM155.812 105.153L170.289 83.8345L168.635 82.7109L154.157 104.029L155.812 105.153ZM169.462 84.2727H178.848V82.2727H169.462V84.2727ZM177.848 83.2727V124H179.848V83.2727H177.848ZM178.848 123H167.791V125H178.848V123ZM168.791 124V102.602H166.791V124H168.791ZM167.791 101.602H167.553V103.602H167.791V101.602ZM166.729 102.036L152.013 123.433L153.661 124.567L168.377 103.169L166.729 102.036ZM152.837 123H143.61V125H152.837V123ZM144.61 124V83.2727H142.61V124H144.61ZM165.246 73.2955H172.166V71.2955H165.246V73.2955ZM171.166 72.2903C171.155 74.5834 170.298 76.3602 168.583 77.7155L169.823 79.2845C172.033 77.5376 173.152 75.178 173.166 72.3006L171.166 72.2903ZM168.586 77.7129C166.851 79.0729 164.447 79.8068 161.269 79.8068V81.8068C164.745 81.8068 167.631 81.0028 169.82 79.2871L168.586 77.7129ZM161.269 79.8068C158.061 79.8068 155.645 79.0719 153.911 77.7129L152.677 79.2871C154.868 81.0038 157.768 81.8068 161.269 81.8068V79.8068ZM153.914 77.7155C152.203 76.3625 151.359 74.5902 151.371 72.3006L149.371 72.2903C149.356 75.1711 150.461 77.5352 152.674 79.2845L153.914 77.7155ZM150.371 73.2955H157.212V71.2955H150.371V73.2955ZM156.212 72.2796C156.194 73.3897 156.6 74.3919 157.351 75.2577L158.862 73.9468C158.394 73.4074 158.203 72.8717 158.212 72.3113L156.212 72.2796ZM157.365 75.2728C158.266 76.2694 159.666 76.6364 161.269 76.6364V74.6364C159.901 74.6364 159.194 74.3139 158.849 73.9317L157.365 75.2728ZM161.269 76.6364C162.814 76.6364 164.17 76.2715 165.054 75.2919L163.569 73.9524C163.233 74.3251 162.56 74.6364 161.269 74.6364V76.6364ZM165.054 75.2919C165.819 74.4439 166.229 73.4383 166.246 72.3106L164.246 72.2803C164.237 72.9026 164.023 73.4481 163.569 73.9524L165.054 75.2919ZM184.078 124H183.078V125H184.078V124ZM184.078 83.2727V82.2727H183.078V83.2727H184.078ZM212.715 83.2727H213.715V82.2727H212.715V83.2727ZM212.715 92.1818V93.1818H213.715V92.1818H212.715ZM195.135 92.1818V91.1818H194.135V92.1818H195.135ZM195.135 96.9545H194.135V97.9545H195.135V96.9545ZM208.24 98.6051L207.845 99.5238L207.847 99.5245L208.24 98.6051ZM214.226 103.259L213.41 103.837L213.413 103.84L214.226 103.259ZM214.226 117.457L213.406 116.886L213.403 116.889L214.226 117.457ZM208.24 122.27L207.831 121.357L207.829 121.358L208.24 122.27ZM195.135 115.33H194.135V116.33H195.135V115.33ZM202.612 114.673L202.181 113.771L202.176 113.774L202.612 114.673ZM204.681 112.864L203.831 112.336L203.824 112.347L204.681 112.864ZM203.825 106.778L203.162 107.527L203.168 107.532L203.825 106.778ZM195.135 105.386V104.386H194.135V105.386H195.135ZM185.078 124V83.2727H183.078V124H185.078ZM184.078 84.2727H212.715V82.2727H184.078V84.2727ZM211.715 83.2727V92.1818H213.715V83.2727H211.715ZM212.715 91.1818H195.135V93.1818H212.715V91.1818ZM194.135 92.1818V96.9545H196.135V92.1818H194.135ZM195.135 97.9545H199.271V95.9545H195.135V97.9545ZM199.271 97.9545C202.586 97.9545 205.436 98.4878 207.845 99.5238L208.635 97.6865C205.927 96.5217 202.798 95.9545 199.271 95.9545V97.9545ZM207.847 99.5245C210.273 100.563 212.113 102.006 213.41 103.837L215.042 102.68C213.502 100.508 211.351 98.8483 208.634 97.6857L207.847 99.5245ZM213.413 103.84C214.711 105.656 215.374 107.801 215.374 110.318H217.374C217.374 107.427 216.605 104.865 215.039 102.677L213.413 103.84ZM215.374 110.318C215.374 112.835 214.711 115.012 213.406 116.886L215.046 118.029C216.605 115.793 217.374 113.21 217.374 110.318H215.374ZM213.403 116.889C212.101 118.775 210.258 120.269 207.831 121.357L208.649 123.182C211.366 121.964 213.514 120.25 215.049 118.025L213.403 116.889ZM207.829 121.358C205.425 122.442 202.581 123 199.271 123V125C202.803 125 205.938 124.404 208.651 123.182L207.829 121.358ZM199.271 123H184.078V125H199.271V123ZM195.135 116.33H199.271V114.33H195.135V116.33ZM199.271 116.33C200.702 116.33 201.975 116.094 203.049 115.573L202.176 113.774C201.447 114.127 200.493 114.33 199.271 114.33V116.33ZM203.044 115.575C204.111 115.065 204.959 114.337 205.537 113.38L203.824 112.347C203.474 112.928 202.943 113.407 202.181 113.771L203.044 115.575ZM205.53 113.391C206.114 112.45 206.396 111.39 206.396 110.239H204.396C204.396 111.05 204.202 111.739 203.831 112.336L205.53 113.391ZM206.396 110.239C206.396 108.558 205.748 107.13 204.483 106.025L203.168 107.532C203.997 108.256 204.396 109.135 204.396 110.239H206.396ZM204.489 106.03C203.194 104.883 201.402 104.386 199.271 104.386V106.386C201.118 106.386 202.362 106.818 203.162 107.527L204.489 106.03ZM199.271 104.386H195.135V106.386H199.271V104.386ZM194.135 105.386V115.33H196.135V105.386H194.135ZM220.281 83.2727V82.2727H219.281V83.2727H220.281ZM231.338 83.2727H232.338V82.2727H231.338V83.2727ZM231.338 104.591H230.338V105.591H231.338V104.591ZM231.656 104.591V105.591H232.186L232.484 105.153L231.656 104.591ZM246.134 83.2727V82.2727H245.604L245.306 82.7109L246.134 83.2727ZM255.52 83.2727H256.52V82.2727H255.52V83.2727ZM255.52 124V125H256.52V124H255.52ZM244.463 124H243.463V125H244.463V124ZM244.463 102.602H245.463V101.602H244.463V102.602ZM244.225 102.602V101.602H243.699L243.401 102.036L244.225 102.602ZM229.509 124V125H230.035L230.333 124.567L229.509 124ZM220.281 124H219.281V125H220.281V124ZM220.281 84.2727H231.338V82.2727H220.281V84.2727ZM230.338 83.2727V104.591H232.338V83.2727H230.338ZM231.338 105.591H231.656V103.591H231.338V105.591ZM232.484 105.153L246.961 83.8345L245.306 82.7109L230.829 104.029L232.484 105.153ZM246.134 84.2727H255.52V82.2727H246.134V84.2727ZM254.52 83.2727V124H256.52V83.2727H254.52ZM255.52 123H244.463V125H255.52V123ZM245.463 124V102.602H243.463V124H245.463ZM244.463 101.602H244.225V103.602H244.463V101.602ZM243.401 102.036L228.685 123.433L230.333 124.567L245.049 103.169L243.401 102.036ZM229.509 123H220.281V125H229.509V123ZM221.281 124V83.2727H219.281V124H221.281ZM268.943 111.273H267.943V112.273H268.943V111.273ZM269.46 105.088L268.494 104.832L269.46 105.088ZM270.992 101.966L271.748 102.62L271.754 102.614L270.992 101.966ZM273.477 99.8182L274.022 100.657L274.026 100.654L273.477 99.8182ZM275.744 98.2074L275.137 97.413L275.129 97.4189L275.744 98.2074ZM277.335 96.5568L276.509 95.9935L276.505 96L276.5 96.0065L277.335 96.5568ZM276.162 91.6449L275.706 92.5349L276.162 91.6449ZM272.364 91.7244L271.886 90.8458L271.878 90.8503L272.364 91.7244ZM270.912 93.0966L270.068 92.5597L270.064 92.5666L270.06 92.5736L270.912 93.0966ZM270.375 95.125V96.125H271.375V95.125H270.375ZM260.193 95.125L259.193 95.1159L259.184 96.125H260.193V95.125ZM262.182 88.0256L262.995 88.6074L262.997 88.6046L262.182 88.0256ZM267.352 84.0085L267.72 84.9386L267.725 84.9366L267.352 84.0085ZM282.029 83.9688L281.677 84.9051L281.682 84.9069L282.029 83.9688ZM287.298 87.7074L286.506 88.3174L286.508 88.3204L287.298 87.7074ZM288.392 98.1676L287.483 97.7523L287.48 97.7568L288.392 98.1676ZM286.105 101.369L286.792 102.096L286.792 102.096L286.105 101.369ZM282.705 103.875L282.202 103.011L282.201 103.011L282.705 103.875ZM280.298 105.605L280.967 106.349L280.975 106.342L280.298 105.605ZM278.827 107.614L279.74 108.021L279.743 108.015L278.827 107.614ZM278.33 111.273V112.273H279.33V111.273H278.33ZM269.838 123.026L269.131 123.733L269.14 123.741L269.838 123.026ZM268.227 119.068L269.227 119.077L269.227 119.068L269.227 119.059L268.227 119.068ZM269.838 115.19L269.14 114.475L269.135 114.479L269.838 115.19ZM277.654 115.19L276.959 115.91L276.964 115.914L277.654 115.19ZM279.364 119.068L280.364 119.081L280.364 119.07L280.364 119.059L279.364 119.068ZM278.548 121.892L277.7 121.362L277.698 121.366L278.548 121.892ZM276.52 123.901L277.026 124.763L277.037 124.757L276.52 123.901ZM269.943 111.273V110.318H267.943V111.273H269.943ZM269.943 110.318C269.943 108.17 270.114 106.524 270.427 105.344L268.494 104.832C268.117 106.25 267.943 108.091 267.943 110.318H269.943ZM270.427 105.345C270.744 104.15 271.196 103.258 271.748 102.62L270.235 101.312C269.435 102.238 268.866 103.428 268.494 104.832L270.427 105.345ZM271.754 102.614C272.36 101.9 273.112 101.247 274.022 100.657L272.933 98.9792C271.88 99.6622 270.976 100.441 270.23 101.318L271.754 102.614ZM274.026 100.654C274.893 100.085 275.671 99.5327 276.359 98.9959L275.129 97.4189C274.492 97.9162 273.759 98.4373 272.929 98.9821L274.026 100.654ZM276.352 99.0017C277.098 98.431 277.712 97.8018 278.17 97.1071L276.5 96.0065C276.189 96.4784 275.743 96.9497 275.137 97.413L276.352 99.0017ZM278.162 97.1202C278.679 96.3619 278.932 95.5006 278.932 94.5682H276.932C276.932 95.1206 276.788 95.585 276.509 95.9935L278.162 97.1202ZM278.932 94.5682C278.932 93.7382 278.73 92.9654 278.3 92.2842L276.609 93.3522C276.815 93.6785 276.932 94.0724 276.932 94.5682H278.932ZM278.3 92.2842C277.884 91.6251 277.317 91.1128 276.618 90.7548L275.706 92.5349C276.095 92.7338 276.389 93.0037 276.609 93.3522L278.3 92.2842ZM276.618 90.7548C275.922 90.3981 275.16 90.2273 274.352 90.2273V92.2273C274.871 92.2273 275.316 92.3348 275.706 92.5349L276.618 90.7548ZM274.352 90.2273C273.475 90.2273 272.647 90.4322 271.886 90.8458L272.841 92.6031C273.3 92.3538 273.798 92.2273 274.352 92.2273V90.2273ZM271.878 90.8503C271.134 91.2637 270.528 91.8378 270.068 92.5597L271.756 93.6335C272.039 93.1887 272.4 92.8481 272.849 92.5986L271.878 90.8503ZM270.06 92.5736C269.594 93.3331 269.375 94.1948 269.375 95.125H271.375C271.375 94.5173 271.515 94.0267 271.764 93.6196L270.06 92.5736ZM270.375 94.125H260.193V96.125H270.375V94.125ZM261.193 95.1341C261.219 92.3605 261.847 90.212 262.995 88.6074L261.369 87.4438C259.918 89.4717 259.221 92.0562 259.193 95.1159L261.193 95.1341ZM262.997 88.6046C264.181 86.9377 265.747 85.7181 267.72 84.9386L266.985 83.0785C264.663 83.9959 262.781 85.4543 261.367 87.4466L262.997 88.6046ZM267.725 84.9366C269.742 84.1274 271.973 83.7159 274.432 83.7159V81.7159C271.747 81.7159 269.259 82.1662 266.98 83.0804L267.725 84.9366ZM274.432 83.7159C277.172 83.7159 279.582 84.1192 281.677 84.9051L282.38 83.0324C280.021 82.1478 277.366 81.7159 274.432 81.7159V83.7159ZM281.682 84.9069C283.756 85.6721 285.349 86.8144 286.506 88.3174L288.091 87.0974C286.676 85.2595 284.756 83.9093 282.375 83.0306L281.682 84.9069ZM286.508 88.3204C287.634 89.7709 288.227 91.6181 288.227 93.9318H290.227C290.227 91.2607 289.535 88.9583 288.088 87.0943L286.508 88.3204ZM288.227 93.9318C288.227 95.4204 287.969 96.686 287.483 97.7523L289.302 98.5829C289.929 97.2098 290.227 95.6516 290.227 93.9318H288.227ZM287.48 97.7568C286.992 98.8419 286.306 99.8025 285.418 100.643L286.792 102.096C287.866 101.08 288.706 99.9062 289.304 98.5784L287.48 97.7568ZM285.418 100.643C284.513 101.498 283.443 102.289 282.202 103.011L283.207 104.739C284.565 103.95 285.762 103.07 286.792 102.096L285.418 100.643ZM282.201 103.011C281.199 103.596 280.336 104.213 279.622 104.869L280.975 106.342C281.56 105.804 282.301 105.268 283.209 104.739L282.201 103.011ZM279.63 104.861C278.881 105.534 278.303 106.318 277.911 107.212L279.743 108.015C280.014 107.398 280.417 106.843 280.967 106.349L279.63 104.861ZM277.914 107.206C277.51 108.109 277.33 109.158 277.33 110.318H279.33C279.33 109.357 279.48 108.603 279.74 108.021L277.914 107.206ZM277.33 110.318V111.273H279.33V110.318H277.33ZM278.33 110.273H268.943V112.273H278.33V110.273ZM273.796 123.636C272.519 123.636 271.45 123.201 270.537 122.31L269.14 123.741C270.427 124.997 271.997 125.636 273.796 125.636V123.636ZM270.545 122.318C269.65 121.423 269.216 120.362 269.227 119.077L267.227 119.06C267.212 120.876 267.852 122.454 269.131 123.733L270.545 122.318ZM269.227 119.059C269.217 117.822 269.644 116.788 270.541 115.902L269.135 114.479C267.858 115.74 267.212 117.292 267.227 119.077L269.227 119.059ZM270.537 115.906C271.45 115.014 272.519 114.58 273.796 114.58V112.58C271.997 112.58 270.427 113.218 269.14 114.475L270.537 115.906ZM273.796 114.58C274.978 114.58 276.02 115.004 276.959 115.91L278.348 114.47C277.06 113.229 275.53 112.58 273.796 112.58V114.58ZM276.964 115.914C277.901 116.808 278.353 117.845 278.364 119.077L280.364 119.059C280.348 117.269 279.66 115.721 278.343 114.466L276.964 115.914ZM278.364 119.055C278.353 119.913 278.13 120.674 277.7 121.362L279.396 122.422C280.027 121.413 280.348 120.292 280.364 119.081L278.364 119.055ZM277.698 121.366C277.264 122.067 276.702 122.623 276.004 123.044L277.037 124.757C278.009 124.171 278.799 123.388 279.399 122.418L277.698 121.366ZM276.014 123.038C275.334 123.437 274.601 123.636 273.796 123.636V125.636C274.952 125.636 276.036 125.345 277.026 124.763L276.014 123.038Z" fill="#1F1F1F"/>
<path d="M67.5028 54L55.0141 37.5341H53.463V54H42.4062V13.2727H53.463V28.625H54.8948L66.588 13.2727H80.5084L64.9971 32.8409L81.3834 54H67.5028ZM121.236 33.6364C121.236 38.1705 120.354 41.9953 118.591 45.1108C116.828 48.2131 114.448 50.5663 111.452 52.1705C108.455 53.7614 105.114 54.5568 101.429 54.5568C97.7168 54.5568 94.3626 53.7547 91.3664 52.1506C88.3834 50.5331 86.0103 48.1733 84.2471 45.071C82.4971 41.9555 81.6221 38.1439 81.6221 33.6364C81.6221 29.1023 82.4971 25.2841 84.2471 22.1818C86.0103 19.0663 88.3834 16.7131 91.3664 15.1222C94.3626 13.518 97.7168 12.7159 101.429 12.7159C105.114 12.7159 108.455 13.518 111.452 15.1222C114.448 16.7131 116.828 19.0663 118.591 22.1818C120.354 25.2841 121.236 29.1023 121.236 33.6364ZM109.861 33.6364C109.861 31.197 109.536 29.142 108.886 27.4716C108.25 25.7879 107.302 24.5151 106.043 23.6534C104.796 22.7784 103.258 22.3409 101.429 22.3409C99.5993 22.3409 98.0548 22.7784 96.7954 23.6534C95.5492 24.5151 94.6012 25.7879 93.9516 27.4716C93.3152 29.142 92.9971 31.197 92.9971 33.6364C92.9971 36.0758 93.3152 38.1373 93.9516 39.821C94.6012 41.4915 95.5492 42.7642 96.7954 43.6392C98.0548 44.5009 99.5993 44.9318 101.429 44.9318C103.258 44.9318 104.796 44.5009 106.043 43.6392C107.302 42.7642 108.25 41.4915 108.886 39.821C109.536 38.1373 109.861 36.0758 109.861 33.6364ZM124.999 54V45.4886L126.113 45.3295C127.465 45.1174 128.585 44.5341 129.474 43.5795C130.375 42.6117 131.065 41.0805 131.542 38.9858C132.032 36.8778 132.344 34.0076 132.476 30.375L133.113 13.2727H162.624V54H151.965V21.8636H143.295L142.658 34.6705C142.42 39.4167 141.783 43.2017 140.749 46.0256C139.715 48.8494 138.144 50.8845 136.036 52.1307C133.928 53.3769 131.151 54 127.704 54H124.999ZM166.507 54V45.4886L167.621 45.3295C168.973 45.1174 170.093 44.5341 170.981 43.5795C171.883 42.6117 172.572 41.0805 173.05 38.9858C173.54 36.8778 173.852 34.0076 173.984 30.375L174.621 13.2727H204.132V54H193.473V21.8636H184.802L184.166 34.6705C183.927 39.4167 183.291 43.2017 182.257 46.0256C181.223 48.8494 179.652 50.8845 177.544 52.1307C175.436 53.3769 172.659 54 169.212 54H166.507ZM220.523 13.2727H234.285L243.751 36.3409H244.228L253.694 13.2727H267.455V54H256.637V30.4545H256.319L247.251 53.6818H240.728L231.66 30.2955H231.342V54H220.523V13.2727ZM272.695 13.2727H283.752V34.5909H284.07L298.547 13.2727H307.934V54H296.877V32.6023H296.638L281.922 54H272.695V13.2727ZM58.9218 81.2727H72.6831L82.1491 104.341H82.6263L92.0922 81.2727H105.854V122H95.0354V98.4545H94.7172L85.6491 121.682H79.1263L70.0581 98.2955H69.74V122H58.9218V81.2727ZM111.094 122V81.2727H140.446V90.1818H122.15V97.1818H138.935V106.091H122.15V113.091H140.366V122H111.094ZM145.93 81.2727H156.986V102.591H157.305L171.782 81.2727H181.168V122H170.111V100.602H169.873L155.157 122H145.93V81.2727ZM167.566 70.2955H174.486C174.473 72.8807 173.485 74.9489 171.523 76.5C169.561 78.0379 166.916 78.8068 163.589 78.8068C160.235 78.8068 157.576 78.0379 155.614 76.5C153.652 74.9489 152.678 72.8807 152.691 70.2955H159.532C159.519 71.1307 159.817 71.8996 160.427 72.6023C161.05 73.2917 162.104 73.6364 163.589 73.6364C165.007 73.6364 166.021 73.2983 166.631 72.6222C167.241 71.946 167.553 71.1705 167.566 70.2955ZM186.398 122V81.2727H215.035V90.1818H197.455V94.9545H201.592C205.012 94.9545 208.002 95.5047 210.56 96.6051C213.132 97.7055 215.128 99.2566 216.546 101.259C217.978 103.26 218.694 105.614 218.694 108.318C218.694 111.023 217.978 113.402 216.546 115.457C215.128 117.512 213.132 119.116 210.56 120.27C208.002 121.423 205.012 122 201.592 122H186.398ZM197.455 113.33H201.592C202.917 113.33 204.031 113.111 204.932 112.673C205.847 112.236 206.537 111.633 207.001 110.864C207.478 110.095 207.717 109.22 207.717 108.239C207.717 106.847 207.193 105.693 206.146 104.778C205.098 103.85 203.58 103.386 201.592 103.386H197.455V113.33ZM222.601 81.2727H233.658V102.591H233.976L248.454 81.2727H257.84V122H246.783V100.602H246.545L231.829 122H222.601V81.2727ZM271.263 109.273V108.318C271.263 106.131 271.436 104.387 271.78 103.088C272.125 101.789 272.636 100.748 273.312 99.9659C273.988 99.1705 274.816 98.4545 275.797 97.8182C276.646 97.2614 277.402 96.7244 278.065 96.2074C278.741 95.6903 279.271 95.1402 279.655 94.5568C280.053 93.9735 280.252 93.3106 280.252 92.5682C280.252 91.9053 280.093 91.322 279.775 90.8182C279.457 90.3144 279.026 89.9233 278.482 89.6449C277.939 89.3665 277.335 89.2273 276.672 89.2273C275.957 89.2273 275.294 89.393 274.684 89.7244C274.087 90.0559 273.603 90.5133 273.232 91.0966C272.874 91.6799 272.695 92.3561 272.695 93.125H262.513C262.54 90.2083 263.203 87.8419 264.502 86.0256C265.801 84.196 267.525 82.857 269.672 82.0085C271.82 81.1468 274.18 80.7159 276.752 80.7159C279.589 80.7159 282.121 81.1335 284.349 81.9688C286.576 82.7907 288.333 84.0369 289.619 85.7074C290.905 87.3646 291.547 89.4394 291.547 91.9318C291.547 93.536 291.269 94.9479 290.712 96.1676C290.169 97.3741 289.406 98.4413 288.425 99.3693C287.458 100.284 286.324 101.119 285.025 101.875C284.07 102.432 283.268 103.009 282.619 103.605C281.969 104.188 281.478 104.858 281.147 105.614C280.815 106.356 280.65 107.258 280.65 108.318V109.273H271.263ZM276.116 122.636C274.578 122.636 273.259 122.099 272.158 121.026C271.071 119.938 270.534 118.619 270.547 117.068C270.534 115.557 271.071 114.264 272.158 113.19C273.259 112.116 274.578 111.58 276.116 111.58C277.574 111.58 278.86 112.116 279.974 113.19C281.101 114.264 281.671 115.557 281.684 117.068C281.671 118.102 281.399 119.044 280.869 119.892C280.351 120.727 279.675 121.397 278.84 121.901C278.005 122.391 277.097 122.636 276.116 122.636Z" fill="#1F1F1F"/>
</svg>
