<svg width="663" height="160" viewBox="0 0 663 160" fill="none" xmlns="http://www.w3.org/2000/svg">
<path d="M89.6509 39.0909H90.6509V38.0909H89.6509V39.0909ZM89.6509 130V131H90.6509V130H89.6509ZM65.3256 130H64.3256V131H65.3256V130ZM65.3256 58.6222H66.3256V57.6222H65.3256V58.6222ZM34.6083 58.6222V57.6222H33.6083V58.6222H34.6083ZM34.6083 130V131H35.6083V130H34.6083ZM10.283 130H9.28303V131H10.283V130ZM10.283 39.0909V38.0909H9.28303V39.0909H10.283ZM88.6509 39.0909V130H90.6509V39.0909H88.6509ZM89.6509 129H65.3256V131H89.6509V129ZM66.3256 130V58.6222H64.3256V130H66.3256ZM65.3256 57.6222H34.6083V59.6222H65.3256V57.6222ZM33.6083 58.6222V130H35.6083V58.6222H33.6083ZM34.6083 129H10.283V131H34.6083V129ZM11.283 130V39.0909H9.28303V130H11.283ZM10.283 40.0909H89.6509V38.0909H10.283V40.0909ZM105.442 130H104.442V131H105.442V130ZM105.442 39.0909V38.0909H104.442V39.0909H105.442ZM162.394 43.0859L161.928 43.9709L162.394 43.0859ZM174.201 54.3164L175.065 53.8129L174.201 54.3164ZM174.068 88.141L173.214 87.621L173.212 87.6249L174.068 88.141ZM161.95 99.1495L161.507 98.253L161.505 98.2541L161.95 99.1495ZM120.357 103.011H119.357V104.011H120.357V103.011ZM120.357 83.8352V82.8352H119.357V83.8352H120.357ZM146.236 82.326L146.678 83.223L146.683 83.2204L146.236 82.326ZM150.986 77.9315L150.126 77.4209L150.12 77.431L150.986 77.9315ZM150.986 64.5703L150.123 65.0767L150.128 65.0849L150.133 65.0929L150.986 64.5703ZM146.236 60.3089L145.794 61.206L145.802 61.2098L145.81 61.2135L146.236 60.3089ZM130.123 58.7997V57.7997H129.123V58.7997H130.123ZM130.123 130V131H131.123V130H130.123ZM106.442 130V39.0909H104.442V130H106.442ZM105.442 40.0909H144.682V38.0909H105.442V40.0909ZM144.682 40.0909C151.296 40.0909 157.035 41.3956 161.928 43.9709L162.859 42.201C157.632 39.4496 151.563 38.0909 144.682 38.0909V40.0909ZM161.928 43.9709C166.827 46.5491 170.623 50.1623 173.337 54.8199L175.065 53.8129C172.157 48.8232 168.081 44.9494 162.859 42.201L161.928 43.9709ZM173.337 54.8199C176.046 59.4683 177.418 64.9265 177.418 71.2287H179.418C179.418 64.6284 177.979 58.8118 175.065 53.8129L173.337 54.8199ZM177.418 71.2287C177.418 77.5868 176.004 83.0379 173.214 87.621L174.922 88.6609C177.933 83.7152 179.418 77.8914 179.418 71.2287H177.418ZM173.212 87.6249C170.444 92.2182 166.552 95.7592 161.507 98.253L162.393 100.046C167.765 97.3907 171.951 93.5927 174.925 88.657L173.212 87.6249ZM161.505 98.2541C156.489 100.748 150.595 102.011 143.795 102.011V104.011C150.844 104.011 157.053 102.701 162.395 100.045L161.505 98.2541ZM143.795 102.011H120.357V104.011H143.795V102.011ZM121.357 103.011V83.8352H119.357V103.011H121.357ZM120.357 84.8352H138.823V82.8352H120.357V84.8352ZM138.823 84.8352C141.836 84.8352 144.466 84.3129 146.678 83.223L145.794 81.429C143.922 82.3514 141.611 82.8352 138.823 82.8352V84.8352ZM146.683 83.2204C148.919 82.1025 150.653 80.5055 151.851 78.432L150.12 77.431C149.129 79.1453 147.696 80.4779 145.789 81.4316L146.683 83.2204ZM151.846 78.442C153.076 76.3691 153.673 73.9522 153.673 71.2287H151.673C151.673 73.6543 151.144 75.7059 150.126 77.4209L151.846 78.442ZM153.673 71.2287C153.673 68.479 153.078 66.0699 151.838 64.0477L150.133 65.0929C151.143 66.7402 151.673 68.7701 151.673 71.2287H153.673ZM151.848 64.0639C150.645 62.0155 148.905 60.4614 146.662 59.4044L145.81 61.2135C147.71 62.1096 149.137 63.3965 150.123 65.0767L151.848 64.0639ZM146.678 59.4119C144.466 58.3221 141.836 57.7997 138.823 57.7997V59.7997C141.611 59.7997 143.922 60.2835 145.794 61.206L146.678 59.4119ZM138.823 57.7997H130.123V59.7997H138.823V57.7997ZM129.123 58.7997V130H131.123V58.7997H129.123ZM130.123 129H105.442V131H130.123V129ZM269.638 110.158L270.507 110.652L270.508 110.651L269.638 110.158ZM253.702 125.916L254.171 126.799L254.174 126.798L253.702 125.916ZM208.869 125.872L208.393 126.751L208.397 126.753L208.869 125.872ZM192.978 110.069L192.106 110.559L192.109 110.563L192.978 110.069ZM192.978 58.9773L192.108 58.4847L192.107 58.486L192.978 58.9773ZM208.869 43.2191L209.34 44.1015L209.341 44.1007L208.869 43.2191ZM253.702 43.2191L253.23 44.1007L253.233 44.1023L253.702 43.2191ZM269.638 58.9773L268.768 59.4698L268.769 59.4714L269.638 58.9773ZM247.976 70.7848L247.041 71.1384L247.044 71.1472L247.976 70.7848ZM241.628 62.2621L241.054 63.0805L241.064 63.0874L241.628 62.2621ZM220.987 62.2621L221.556 63.0846L221.558 63.0833L220.987 62.2621ZM214.64 70.7848L213.707 70.4248L213.705 70.4288L214.64 70.7848ZM214.64 98.3505L213.704 98.7041L213.708 98.7129L214.64 98.3505ZM220.987 106.873L220.413 107.692L220.423 107.699L220.987 106.873ZM241.628 106.873L242.197 107.696L242.199 107.694L241.628 106.873ZM247.976 98.3505L247.043 97.9905L247.042 97.9945L247.976 98.3505ZM274.542 84.5455C274.542 94.5388 272.599 102.896 268.768 109.665L270.508 110.651C274.549 103.511 276.542 94.7936 276.542 84.5455H274.542ZM268.769 109.664C264.921 116.433 259.743 121.547 253.23 125.035L254.174 126.798C261.037 123.123 266.483 117.732 270.507 110.652L268.769 109.664ZM253.233 125.033C246.702 128.501 239.408 130.243 231.33 130.243V132.243C239.706 132.243 247.327 130.434 254.171 126.799L253.233 125.033ZM231.33 130.243C223.193 130.243 215.871 128.486 209.341 124.99L208.397 126.753C215.243 130.419 222.895 132.243 231.33 132.243V130.243ZM209.346 124.993C202.86 121.476 197.696 116.346 193.847 109.575L192.109 110.563C196.132 117.642 201.561 123.047 208.393 126.751L209.346 124.993ZM193.85 109.58C190.047 102.809 188.119 94.4795 188.119 84.5455H186.119C186.119 94.7345 188.097 103.421 192.106 110.559L193.85 109.58ZM188.119 84.5455C188.119 74.5508 190.047 66.2078 193.849 59.4686L192.107 58.486C188.096 65.5962 186.119 74.2986 186.119 84.5455H188.119ZM193.848 59.4698C197.696 52.6706 202.859 47.5579 209.34 44.1015L208.399 42.3368C201.563 45.9826 196.131 51.3754 192.108 58.4847L193.848 59.4698ZM209.341 44.1007C215.871 40.6047 223.193 38.848 231.33 38.848V36.848C222.895 36.848 215.243 38.672 208.397 42.3375L209.341 44.1007ZM231.33 38.848C239.407 38.848 246.7 40.6042 253.23 44.1007L254.174 42.3375C247.329 38.6726 239.707 36.848 231.33 36.848V38.848ZM253.233 44.1023C259.744 47.5591 264.92 52.6717 268.768 59.4698L270.508 58.4847C266.484 51.3742 261.037 45.9814 254.171 42.3359L253.233 44.1023ZM268.769 59.4714C272.599 66.21 274.542 74.5519 274.542 84.5455H276.542C276.542 74.2975 274.549 65.594 270.507 58.4831L268.769 59.4714ZM251.151 84.5455C251.151 79.0183 250.416 74.3001 248.908 70.4224L247.044 71.1472C248.436 74.7269 249.151 79.1825 249.151 84.5455H251.151ZM248.912 70.4313C247.432 66.5167 245.202 63.4955 242.193 61.4368L241.064 63.0874C243.678 64.8757 245.679 67.5363 247.041 71.1383L248.912 70.4313ZM242.203 61.4437C239.221 59.3502 235.577 58.3324 231.33 58.3324V60.3324C235.251 60.3324 238.472 61.2677 241.054 63.0805L242.203 61.4437ZM231.33 58.3324C227.083 58.3324 223.426 59.3503 220.417 61.4408L221.558 63.0833C224.172 61.2676 227.41 60.3324 231.33 60.3324V58.3324ZM220.419 61.4396C217.442 63.4976 215.215 66.5158 213.707 70.4248L215.573 71.1448C216.965 67.5372 218.969 64.8736 221.556 63.0846L220.419 61.4396ZM213.705 70.4288C212.229 74.3044 211.509 79.0201 211.509 84.5455H213.509C213.509 79.1806 214.21 74.7226 215.574 71.1408L213.705 70.4288ZM211.509 84.5455C211.509 90.0712 212.229 94.8005 213.704 98.704L215.575 97.997C214.21 94.3839 213.509 89.9099 213.509 84.5455H211.509ZM213.708 98.7129C215.216 102.592 217.443 105.606 220.413 107.692L221.562 106.055C218.969 104.234 216.963 101.566 215.572 97.9881L213.708 98.7129ZM220.423 107.699C223.431 109.757 227.086 110.759 231.33 110.759V108.759C227.407 108.759 224.166 107.837 221.552 106.048L220.423 107.699ZM231.33 110.759C235.574 110.759 239.216 109.757 242.197 107.696L241.06 106.051C238.477 107.836 235.254 108.759 231.33 108.759V110.759ZM242.199 107.694C245.202 105.608 247.431 102.591 248.911 98.7065L247.042 97.9945C245.681 101.567 243.678 104.232 241.058 106.052L242.199 107.694ZM248.909 98.7105C250.416 94.8047 251.151 90.073 251.151 84.5455H249.151C249.151 89.908 248.436 94.3797 247.043 97.9905L248.909 98.7105ZM286.961 130H285.961V131H286.961V130ZM286.961 39.0909V38.0909H285.961V39.0909H286.961ZM352.479 39.0909H353.479V38.0909H352.479V39.0909ZM352.479 58.9773V59.9773H353.479V58.9773H352.479ZM311.641 58.9773V57.9773H310.641V58.9773H311.641ZM311.641 74.6023H310.641V75.6023H311.641V74.6023ZM349.106 74.6023H350.106V73.6023H349.106V74.6023ZM349.106 94.4886V95.4886H350.106V94.4886H349.106ZM311.641 94.4886V93.4886H310.641V94.4886H311.641ZM311.641 110.114H310.641V111.114H311.641V110.114ZM352.302 110.114H353.302V109.114H352.302V110.114ZM352.302 130V131H353.302V130H352.302ZM287.961 130V39.0909H285.961V130H287.961ZM286.961 40.0909H352.479V38.0909H286.961V40.0909ZM351.479 39.0909V58.9773H353.479V39.0909H351.479ZM352.479 57.9773H311.641V59.9773H352.479V57.9773ZM310.641 58.9773V74.6023H312.641V58.9773H310.641ZM311.641 75.6023H349.106V73.6023H311.641V75.6023ZM348.106 74.6023V94.4886H350.106V74.6023H348.106ZM349.106 93.4886H311.641V95.4886H349.106V93.4886ZM310.641 94.4886V110.114H312.641V94.4886H310.641ZM311.641 111.114H352.302V109.114H311.641V111.114ZM351.302 110.114V130H353.302V110.114H351.302ZM352.302 129H286.961V131H352.302V129ZM420.739 130L419.942 130.604L420.242 131H420.739V130ZM392.862 93.2457L393.659 92.6414L393.359 92.2457H392.862V93.2457ZM389.4 93.2457V92.2457H388.4V93.2457H389.4ZM389.4 130V131H390.4V130H389.4ZM364.72 130H363.72V131H364.72V130ZM364.72 39.0909V38.0909H363.72V39.0909H364.72ZM389.4 39.0909H390.4V38.0909H389.4V39.0909ZM389.4 73.3594H388.4V74.3594H389.4V73.3594ZM392.596 73.3594V74.3594H393.092L393.392 73.9653L392.596 73.3594ZM418.697 39.0909V38.0909H418.202L417.901 38.485L418.697 39.0909ZM449.769 39.0909L450.553 39.7121L451.838 38.0909H449.769V39.0909ZM415.146 82.7699L414.362 82.1487L413.875 82.7627L414.355 83.3822L415.146 82.7699ZM451.723 130V131H453.762L452.513 129.388L451.723 130ZM421.536 129.396L393.659 92.6414L392.066 93.85L419.942 130.604L421.536 129.396ZM392.862 92.2457H389.4V94.2457H392.862V92.2457ZM388.4 93.2457V130H390.4V93.2457H388.4ZM389.4 129H364.72V131H389.4V129ZM365.72 130V39.0909H363.72V130H365.72ZM364.72 40.0909H389.4V38.0909H364.72V40.0909ZM388.4 39.0909V73.3594H390.4V39.0909H388.4ZM389.4 74.3594H392.596V72.3594H389.4V74.3594ZM393.392 73.9653L419.493 39.6968L417.901 38.485L391.801 72.7535L393.392 73.9653ZM418.697 40.0909H449.769V38.0909H418.697V40.0909ZM448.986 38.4697L414.362 82.1487L415.93 83.3911L450.553 39.7121L448.986 38.4697ZM414.355 83.3822L450.932 130.612L452.513 129.388L415.936 82.1576L414.355 83.3822ZM451.723 129H420.739V131H451.723V129ZM455.862 58.9773H454.862V59.9773H455.862V58.9773ZM455.862 39.0909V38.0909H454.862V39.0909H455.862ZM534.875 39.0909H535.875V38.0909H534.875V39.0909ZM534.875 58.9773V59.9773H535.875V58.9773H534.875ZM507.531 58.9773V57.9773H506.531V58.9773H507.531ZM507.531 130V131H508.531V130H507.531ZM483.206 130H482.206V131H483.206V130ZM483.206 58.9773H484.206V57.9773H483.206V58.9773ZM456.862 58.9773V39.0909H454.862V58.9773H456.862ZM455.862 40.0909H534.875V38.0909H455.862V40.0909ZM533.875 39.0909V58.9773H535.875V39.0909H533.875ZM534.875 57.9773H507.531V59.9773H534.875V57.9773ZM506.531 58.9773V130H508.531V58.9773H506.531ZM507.531 129H483.206V131H507.531V129ZM484.206 130V58.9773H482.206V130H484.206ZM483.206 57.9773H455.862V59.9773H483.206V57.9773ZM559.788 69.6307V68.6307H558.788V69.6307H559.788ZM598.673 73.315L598.278 74.2336L598.28 74.2344L598.673 73.315ZM612.034 83.7021L611.218 84.2802L611.221 84.2838L612.034 83.7021ZM616.784 99.4602L615.784 99.4553V99.4651L616.784 99.4602ZM612.034 115.396L611.214 114.824L611.211 114.828L612.034 115.396ZM598.673 126.138L598.264 125.226L598.262 125.226L598.673 126.138ZM544.696 130H543.696V131H544.696V130ZM544.696 39.0909V38.0909H543.696V39.0909H544.696ZM569.376 39.0909H570.376V38.0909H569.376V39.0909ZM569.376 110.646H568.376V111.646H569.376V110.646ZM586.111 109.181L585.679 108.279L585.674 108.282L586.111 109.181ZM590.727 105.142L589.878 104.615L589.871 104.625L590.727 105.142ZM592.281 99.2827L591.281 99.2731L591.281 99.2847L591.281 99.2962L592.281 99.2827ZM588.819 91.559L588.155 92.3074L588.161 92.3121L588.819 91.559ZM559.788 88.4517H558.788V89.4517H559.788V88.4517ZM647.856 39.0909H648.856V38.0909H647.856V39.0909ZM647.856 130V131H648.856V130H647.856ZM623.176 130H622.176V131H623.176V130ZM623.176 39.0909V38.0909H622.176V39.0909H623.176ZM559.788 70.6307H578.609V68.6307H559.788V70.6307ZM578.609 70.6307C586.169 70.6307 592.717 71.842 598.278 74.2336L599.068 72.3963C593.206 69.8755 586.379 68.6307 578.609 68.6307V70.6307ZM598.28 74.2344C603.875 76.6284 608.173 79.9825 611.218 84.2802L612.85 83.1239C609.563 78.4846 604.953 74.914 599.066 72.3956L598.28 74.2344ZM611.221 84.2838C614.282 88.5643 615.812 93.6068 615.784 99.4553L617.784 99.4651C617.814 93.2397 616.178 87.7768 612.848 83.1203L611.221 84.2838ZM615.784 99.4651C615.812 105.313 614.282 110.42 611.214 114.824L612.855 115.968C616.178 111.198 617.814 105.681 617.784 99.4553L615.784 99.4651ZM611.211 114.828C608.162 119.246 603.86 122.716 598.264 125.226L599.082 127.051C604.968 124.411 609.574 120.72 612.857 115.964L611.211 114.828ZM598.262 125.226C592.705 127.731 586.163 129 578.609 129V131C586.384 131 593.218 129.694 599.084 127.05L598.262 125.226ZM578.609 129H544.696V131H578.609V129ZM545.696 130V39.0909H543.696V130H545.696ZM544.696 40.0909H569.376V38.0909H544.696V40.0909ZM568.376 39.0909V110.646H570.376V39.0909H568.376ZM569.376 111.646H578.609V109.646H569.376V111.646ZM578.609 111.646C581.701 111.646 584.361 111.142 586.547 110.081L585.674 108.282C583.836 109.174 581.495 109.646 578.609 109.646V111.646ZM586.542 110.084C588.737 109.034 590.434 107.563 591.584 105.659L589.871 104.625C588.949 106.154 587.569 107.376 585.679 108.279L586.542 110.084ZM591.577 105.669C592.752 103.777 593.313 101.633 593.281 99.2692L591.281 99.2962C591.308 101.312 590.834 103.074 589.878 104.615L591.577 105.669ZM593.281 99.2922C593.313 95.8933 592.034 93.04 589.476 90.8058L588.161 92.3121C590.278 94.1617 591.308 96.4575 591.281 99.2731L593.281 99.2922ZM589.482 90.8105C586.896 88.5191 583.218 87.4517 578.609 87.4517V89.4517C582.937 89.4517 586.066 90.4558 588.155 92.3074L589.482 90.8105ZM578.609 87.4517H559.788V89.4517H578.609V87.4517ZM560.788 88.4517V69.6307H558.788V88.4517H560.788ZM646.856 39.0909V130H648.856V39.0909H646.856ZM647.856 129H623.176V131H647.856V129ZM624.176 130V39.0909H622.176V130H624.176ZM623.176 40.0909H647.856V38.0909H623.176V40.0909Z" fill="#1F1F1F"/>
<path d="M98.6509 30.0909V121H74.3256V49.6222H43.6083V121H19.283V30.0909H98.6509ZM114.442 121V30.0909H153.682C160.43 30.0909 166.333 31.4226 171.394 34.0859C176.454 36.7493 180.39 40.4928 183.201 45.3164C186.013 50.14 187.418 55.7775 187.418 62.2287C187.418 68.7391 185.968 74.3765 183.068 79.141C180.198 83.9054 176.158 87.5749 170.95 90.1495C165.771 92.7241 159.719 94.0114 152.795 94.0114H129.357V74.8352H147.823C150.723 74.8352 153.194 74.3321 155.236 73.326C157.308 72.2902 158.891 70.8254 159.986 68.9315C161.11 67.0375 161.672 64.8033 161.672 62.2287C161.672 59.6245 161.11 57.4051 159.986 55.5703C158.891 53.706 157.308 52.2855 155.236 51.3089C153.194 50.3028 150.723 49.7997 147.823 49.7997H139.123V121H114.442ZM284.542 75.5455C284.542 85.6662 282.574 94.2037 278.638 101.158C274.702 108.083 269.39 113.335 262.702 116.916C256.014 120.467 248.557 122.243 240.33 122.243C232.044 122.243 224.557 120.453 217.869 116.872C211.211 113.261 205.914 107.994 201.978 101.069C198.072 94.1149 196.119 85.607 196.119 75.5455C196.119 65.4247 198.072 56.902 201.978 49.9773C205.914 43.023 211.211 37.7702 217.869 34.2191C224.557 30.6384 232.044 28.848 240.33 28.848C248.557 28.848 256.014 30.6384 262.702 34.2191C269.39 37.7702 274.702 43.023 278.638 49.9773C282.574 56.902 284.542 65.4247 284.542 75.5455ZM259.151 75.5455C259.151 70.1004 258.426 65.5135 256.976 61.7848C255.556 58.0265 253.44 55.1856 250.628 53.2621C247.847 51.3089 244.414 50.3324 240.33 50.3324C236.246 50.3324 232.799 51.3089 229.987 53.2621C227.206 55.1856 225.09 58.0265 223.64 61.7848C222.219 65.5135 221.509 70.1004 221.509 75.5455C221.509 80.9905 222.219 85.5922 223.64 89.3505C225.09 93.0792 227.206 95.9201 229.987 97.8732C232.799 99.7968 236.246 100.759 240.33 100.759C244.414 100.759 247.847 99.7968 250.628 97.8732C253.44 95.9201 255.556 93.0792 256.976 89.3505C258.426 85.5922 259.151 80.9905 259.151 75.5455ZM295.961 121V30.0909H361.479V49.9773H320.641V65.6023H358.106V85.4886H320.641V101.114H361.302V121H295.961ZM429.739 121L401.862 84.2457H398.4V121H373.72V30.0909H398.4V64.3594H401.596L427.697 30.0909H458.769L424.146 73.7699L460.723 121H429.739ZM464.862 49.9773V30.0909H543.875V49.9773H516.531V121H492.206V49.9773H464.862ZM568.788 60.6307H587.609C595.274 60.6307 601.962 61.8588 607.673 64.315C613.414 66.7712 617.868 70.2335 621.034 74.7021C624.23 79.1706 625.813 84.4233 625.784 90.4602C625.813 96.4972 624.23 101.809 621.034 106.396C617.868 110.983 613.414 114.564 607.673 117.138C601.962 119.713 595.274 121 587.609 121H553.696V30.0909H578.376V101.646H587.609C590.598 101.646 593.099 101.158 595.111 100.181C597.153 99.2049 598.692 97.8584 599.727 96.142C600.793 94.4257 601.311 92.4725 601.281 90.2827C601.311 87.1754 600.156 84.6009 597.819 82.5589C595.481 80.4875 592.078 79.4517 587.609 79.4517H568.788V60.6307ZM656.856 30.0909V121H632.176V30.0909H656.856Z" fill="#1F1F1F"/>
</svg>
