<svg width="499" height="161" viewBox="0 0 499 161" fill="none" xmlns="http://www.w3.org/2000/svg">
<path d="M91.213 74.1818V75.1818H92.3003L92.2095 74.0983L91.213 74.1818ZM66.1775 74.1818L65.1811 74.2672L65.2595 75.1818H66.1775V74.1818ZM64.757 68.5444L63.8412 68.946L63.8442 68.9527L63.8472 68.9594L64.757 68.5444ZM61.6498 64.1942L60.9593 64.9176L60.9677 64.9256L60.9763 64.9334L61.6498 64.1942ZM56.9001 61.3533L56.5572 62.2928L56.5704 62.2974L56.9001 61.3533ZM40.0322 63.3509L39.4582 62.532L39.4542 62.5348L40.0322 63.3509ZM33.5514 72.0067L32.6209 71.6404L32.6184 71.6468L33.5514 72.0067ZM33.5958 99.5281L32.6653 99.8944L32.6688 99.9032L33.5958 99.5281ZM40.121 107.962L39.5663 108.794L39.5723 108.798L40.121 107.962ZM56.5006 109.915L56.798 110.87L56.8051 110.868L56.8122 110.865L56.5006 109.915ZM61.2059 107.385L61.841 108.157L61.2059 107.385ZM64.4463 103.434L63.569 102.954L63.5658 102.96L64.4463 103.434ZM66.1775 98.152L66.1846 97.152L65.3185 97.1459L65.1888 98.0022L66.1775 98.152ZM91.213 98.3295L92.21 98.4062L92.2923 97.3372L91.2201 97.3296L91.213 98.3295ZM87.9726 110.093L88.8775 110.518L88.8788 110.516L87.9726 110.093ZM80.0269 121.101L80.7278 121.814L80.7278 121.814L80.0269 121.101ZM67.376 129.18L66.9999 128.253L67.376 129.18ZM27.3813 126.872L26.9044 127.751L26.906 127.752L27.3813 126.872ZM11.7119 111.069L10.8353 111.55L10.8369 111.553L11.7119 111.069ZM11.8451 59.9773L12.7161 60.4686L12.717 60.467L11.8451 59.9773ZM27.6476 44.2191L28.1199 45.1006L28.1229 45.0989L27.6476 44.2191ZM65.6892 41.2006L65.9984 40.2496L65.6892 41.2006ZM78.3845 48.081L77.7462 48.8507L77.7499 48.8538L78.3845 48.081ZM87.1736 59.1339L86.2816 59.5859H86.2816L87.1736 59.1339ZM91.213 73.1818H66.1775V75.1818H91.213V73.1818ZM67.1738 74.0964C66.9877 71.9246 66.4891 69.9321 65.6668 68.1294L63.8472 68.9594C64.5637 70.5302 65.0122 72.296 65.1811 74.2672L67.1738 74.0964ZM65.6728 68.1427C64.878 66.3307 63.7608 64.7648 62.3233 63.455L60.9763 64.9334C62.2021 66.0503 63.1564 67.3845 63.8412 68.946L65.6728 68.1427ZM62.3402 63.4709C60.9254 62.1203 59.2156 61.1027 57.2298 60.4092L56.5704 62.2974C58.3134 62.9061 59.77 63.7824 60.9593 64.9176L62.3402 63.4709ZM57.2431 60.414C55.2499 59.6863 53.0149 59.3324 50.5525 59.3324V61.3324C52.8249 61.3324 54.8216 61.6591 56.5572 62.2927L57.2431 60.414ZM50.5525 59.3324C46.2424 59.3324 42.5257 60.3816 39.4582 62.532L40.6063 64.1697C43.2797 62.2955 46.5766 61.3324 50.5525 61.3324V59.3324ZM39.4542 62.5348C36.4304 64.6767 34.1601 67.7308 32.6209 71.6404L34.4819 72.3731C35.902 68.7661 37.9522 66.0496 40.6102 64.1669L39.4542 62.5348ZM32.6184 71.6468C31.1128 75.5492 30.3763 80.1907 30.3763 85.5455H32.3763C32.3763 80.3651 33.0899 75.9809 34.4844 72.3667L32.6184 71.6468ZM30.3763 85.5455C30.3763 91.1902 31.126 95.9844 32.6653 99.8944L34.5263 99.1617C33.1064 95.5551 32.3763 91.0276 32.3763 85.5455H30.3763ZM32.6688 99.9032C34.2397 103.784 36.5302 106.77 39.5663 108.794L40.6757 107.13C38.03 105.366 35.9703 102.729 34.5227 99.1529L32.6688 99.9032ZM39.5723 108.798C42.6032 110.787 46.2199 111.759 50.3749 111.759V109.759C46.5399 109.759 43.3206 108.866 40.6697 107.126L39.5723 108.798ZM50.3749 111.759C52.7344 111.759 54.8792 111.468 56.798 110.87L56.2032 108.96C54.5117 109.487 52.5727 109.759 50.3749 109.759V111.759ZM56.8122 110.865C58.7233 110.239 60.4041 109.339 61.841 108.157L60.5708 106.613C59.3443 107.621 57.8883 108.408 56.1891 108.965L56.8122 110.865ZM61.841 108.157C63.2745 106.979 64.4374 105.56 65.3268 103.908L63.5658 102.96C62.798 104.386 61.8006 105.601 60.5708 106.613L61.841 108.157ZM65.3235 103.914C66.2435 102.233 66.8546 100.359 67.1662 98.3018L65.1888 98.0022C64.9085 99.8517 64.3654 101.499 63.569 102.954L65.3235 103.914ZM66.1704 99.152L91.2059 99.3295L91.2201 97.3296L66.1846 97.152L66.1704 99.152ZM90.2159 98.2528C89.9304 101.964 88.887 105.768 87.0664 109.67L88.8788 110.516C90.7868 106.427 91.9037 102.389 92.21 98.4062L90.2159 98.2528ZM87.0676 109.667C85.2584 113.515 82.6825 117.089 79.326 120.388L80.7278 121.814C84.2368 118.366 86.958 114.601 88.8775 110.518L87.0676 109.667ZM79.326 120.388C76.0281 123.628 71.9261 126.254 66.9999 128.253L67.7521 130.107C72.8874 128.022 77.2193 125.262 80.7278 121.814L79.326 120.388ZM66.9999 128.253C62.1123 130.237 56.4 131.243 49.8422 131.243V133.243C56.6012 133.243 62.5781 132.207 67.7521 130.107L66.9999 128.253ZM49.8422 131.243C41.6448 131.243 34.3241 129.486 27.8566 125.992L26.906 127.752C33.696 131.419 41.3493 133.243 49.8422 133.243V131.243ZM27.8582 125.993C21.4367 122.509 16.3473 117.383 12.5869 110.585L10.8369 111.553C14.7706 118.664 20.1275 124.074 26.9044 127.751L27.8582 125.993ZM12.5885 110.588C8.8709 103.816 6.98571 95.483 6.98571 85.5455H4.98571C4.98571 95.731 6.91799 104.414 10.8353 111.55L12.5885 110.588ZM6.98571 85.5455C6.98571 75.5508 8.91446 67.2078 12.7161 60.4686L10.9741 59.486C6.96321 66.5962 4.98571 75.2986 4.98571 85.5455H6.98571ZM12.717 60.467C16.5359 53.6681 21.6692 48.5563 28.1199 45.1006L27.1754 43.3376C20.3685 46.9842 14.9668 52.3778 10.9732 59.4875L12.717 60.467ZM28.1229 45.0989C34.5936 41.6036 41.8263 39.848 49.8422 39.848V37.848C41.523 37.848 33.9593 39.6731 27.1724 43.3393L28.1229 45.0989ZM49.8422 39.848C55.4919 39.848 60.6684 40.6196 65.38 42.1516L65.9984 40.2496C61.0627 38.6448 55.6746 37.848 49.8422 37.848V39.848ZM65.38 42.1516C70.0922 43.6838 74.2104 45.9186 77.7462 48.8507L79.0228 47.3112C75.2788 44.2064 70.9334 41.8543 65.9984 40.2496L65.38 42.1516ZM77.7499 48.8538C81.2782 51.751 84.122 55.3244 86.2816 59.5859L88.0656 58.6818C85.7862 54.1839 82.7707 50.3887 79.0191 47.3081L77.7499 48.8538ZM86.2816 59.5859C88.4344 63.8343 89.7521 68.7218 90.2165 74.2653L92.2095 74.0983C91.7269 68.3374 90.3516 63.193 88.0656 58.6818L86.2816 59.5859ZM158.429 131L157.633 131.604L157.933 132H158.429V131ZM130.553 94.2457L131.35 93.6414L131.05 93.2457H130.553V94.2457ZM127.091 94.2457V93.2457H126.091V94.2457H127.091ZM127.091 131V132H128.091V131H127.091ZM102.41 131H101.41V132H102.41V131ZM102.41 40.0909V39.0909H101.41V40.0909H102.41ZM127.091 40.0909H128.091V39.0909H127.091V40.0909ZM127.091 74.3594H126.091V75.3594H127.091V74.3594ZM130.287 74.3594V75.3594H130.782L131.082 74.9653L130.287 74.3594ZM156.387 40.0909V39.0909H155.892L155.592 39.485L156.387 40.0909ZM187.46 40.0909L188.244 40.7121L189.529 39.0909H187.46V40.0909ZM152.836 83.7699L152.053 83.1487L151.566 83.7627L152.046 84.3822L152.836 83.7699ZM189.413 131V132H191.452L190.204 130.388L189.413 131ZM159.226 130.396L131.35 93.6414L129.756 94.85L157.633 131.604L159.226 130.396ZM130.553 93.2457H127.091V95.2457H130.553V93.2457ZM126.091 94.2457V131H128.091V94.2457H126.091ZM127.091 130H102.41V132H127.091V130ZM103.41 131V40.0909H101.41V131H103.41ZM102.41 41.0909H127.091V39.0909H102.41V41.0909ZM126.091 40.0909V74.3594H128.091V40.0909H126.091ZM127.091 75.3594H130.287V73.3594H127.091V75.3594ZM131.082 74.9653L157.183 40.6968L155.592 39.485L129.491 73.7535L131.082 74.9653ZM156.387 41.0909H187.46V39.0909H156.387V41.0909ZM186.676 39.4697L152.053 83.1487L153.62 84.3911L188.244 40.7121L186.676 39.4697ZM152.046 84.3822L188.622 131.612L190.204 130.388L153.627 83.1576L152.046 84.3822ZM189.413 130H158.429V132H189.413V130ZM196.038 40.0909V39.0909H195.038V40.0909H196.038ZM220.718 40.0909H221.718V39.0909H220.718V40.0909ZM220.718 87.6761H219.718V88.6761H220.718V87.6761ZM221.429 87.6761V88.6761H221.958L222.256 88.2379L221.429 87.6761ZM253.744 40.0909V39.0909H253.214L252.917 39.5291L253.744 40.0909ZM274.696 40.0909H275.696V39.0909H274.696V40.0909ZM274.696 131V132H275.696V131H274.696ZM250.015 131H249.015V132H250.015V131ZM250.015 83.2372H251.015V82.2372H250.015V83.2372ZM249.483 83.2372V82.2372H248.957L248.659 82.6706L249.483 83.2372ZM216.635 131V132H217.161L217.459 131.567L216.635 131ZM196.038 131H195.038V132H196.038V131ZM196.038 41.0909H220.718V39.0909H196.038V41.0909ZM219.718 40.0909V87.6761H221.718V40.0909H219.718ZM220.718 88.6761H221.429V86.6761H220.718V88.6761ZM222.256 88.2379L254.571 40.6527L252.917 39.5291L220.601 87.1143L222.256 88.2379ZM253.744 41.0909H274.696V39.0909H253.744V41.0909ZM273.696 40.0909V131H275.696V40.0909H273.696ZM274.696 130H250.015V132H274.696V130ZM251.015 131V83.2372H249.015V131H251.015ZM250.015 82.2372H249.483V84.2372H250.015V82.2372ZM248.659 82.6706L215.811 130.433L217.459 131.567L250.307 83.8039L248.659 82.6706ZM216.635 130H196.038V132H216.635V130ZM197.038 131V40.0909H195.038V131H197.038ZM283.352 131H282.352V132H283.352V131ZM283.352 112.001L283.21 111.011L282.352 111.134V112.001H283.352ZM285.837 111.646L285.979 112.636L285.992 112.634L285.837 111.646ZM293.339 107.74L292.608 107.058L292.607 107.059L293.339 107.74ZM297.956 97.4861L296.982 97.2595L296.981 97.264L297.956 97.4861ZM300.042 78.2656L299.043 78.2284L299.043 78.2292L300.042 78.2656ZM301.462 40.0909V39.0909H300.499L300.463 40.0537L301.462 40.0909ZM367.336 40.0909H368.336V39.0909H367.336V40.0909ZM367.336 131V132H368.336V131H367.336ZM343.543 131H342.543V132H343.543V131ZM343.543 59.267H344.543V58.267H343.543V59.267ZM324.19 59.267V58.267H323.238L323.191 59.2174L324.19 59.267ZM322.769 87.8537L323.768 87.9039L323.768 87.9033L322.769 87.8537ZM318.508 113.2L317.569 112.856L318.508 113.2ZM284.352 131V112.001H282.352V131H284.352ZM283.493 112.991L285.979 112.636L285.696 110.656L283.21 111.011L283.493 112.991ZM285.992 112.634C289.22 112.128 291.928 110.725 294.071 108.421L292.607 107.059C290.785 109.017 288.492 110.218 285.682 110.658L285.992 112.634ZM294.071 108.422C296.256 106.075 297.848 102.46 298.931 97.7083L296.981 97.264C295.933 101.864 294.447 105.084 292.608 107.058L294.071 108.422ZM298.93 97.7128C300.046 92.9173 300.744 86.4377 301.041 78.3021L299.043 78.2292C298.748 86.3104 298.056 92.6445 296.982 97.2595L298.93 97.7128ZM301.041 78.3028L302.462 40.1281L300.463 40.0537L299.043 78.2284L301.041 78.3028ZM301.462 41.0909H367.336V39.0909H301.462V41.0909ZM366.336 40.0909V131H368.336V40.0909H366.336ZM367.336 130H343.543V132H367.336V130ZM344.543 131V59.267H342.543V131H344.543ZM343.543 58.267H324.19V60.267H343.543V58.267ZM323.191 59.2174L321.771 87.8041L323.768 87.9033L325.188 59.3167L323.191 59.2174ZM321.771 87.8035C321.24 98.3484 319.829 106.685 317.569 112.856L319.447 113.544C321.804 107.108 323.233 98.5474 323.768 87.9039L321.771 87.8035ZM317.569 112.856C315.321 118.994 311.943 123.327 307.479 125.967L308.497 127.688C313.443 124.764 317.078 120.013 319.447 113.544L317.569 112.856ZM307.479 125.967C302.978 128.627 296.973 130 289.389 130V132C297.192 132 303.587 130.591 308.497 127.688L307.479 125.967ZM289.389 130H283.352V132H289.389V130ZM394.646 70.6307V69.6307H393.646V70.6307H394.646ZM433.531 74.315L433.136 75.2336L433.138 75.2344L433.531 74.315ZM446.893 84.7021L446.077 85.2802L446.079 85.2838L446.893 84.7021ZM451.642 100.46L450.642 100.455L450.642 100.465L451.642 100.46ZM446.893 116.396L446.072 115.824L446.07 115.828L446.893 116.396ZM433.531 127.138L433.122 126.226L433.12 126.226L433.531 127.138ZM379.554 131H378.554V132H379.554V131ZM379.554 40.0909V39.0909H378.554V40.0909H379.554ZM404.235 40.0909H405.235V39.0909H404.235V40.0909ZM404.235 111.646H403.235V112.646H404.235V111.646ZM420.969 110.181L420.538 109.279L420.533 109.282L420.969 110.181ZM425.586 106.142L424.736 105.615L424.73 105.625L425.586 106.142ZM427.139 100.283L426.139 100.273L426.139 100.285L426.139 100.296L427.139 100.283ZM423.677 92.559L423.014 93.3074L423.019 93.3121L423.677 92.559ZM394.646 89.4517H393.646V90.4517H394.646V89.4517ZM482.715 40.0909H483.715V39.0909H482.715V40.0909ZM482.715 131V132H483.715V131H482.715ZM458.034 131H457.034V132H458.034V131ZM458.034 40.0909V39.0909H457.034V40.0909H458.034ZM394.646 71.6307H413.467V69.6307H394.646V71.6307ZM413.467 71.6307C421.027 71.6307 427.575 72.842 433.136 75.2336L433.926 73.3963C428.065 70.8755 421.237 69.6307 413.467 69.6307V71.6307ZM433.138 75.2344C438.734 77.6284 443.031 80.9825 446.077 85.2802L447.708 84.1239C444.421 79.4846 439.811 75.914 433.925 73.3956L433.138 75.2344ZM446.079 85.2838C449.141 89.5643 450.671 94.6068 450.642 100.455L452.642 100.465C452.673 94.2397 451.036 88.7768 447.706 84.1203L446.079 85.2838ZM450.642 100.465C450.671 106.313 449.141 111.42 446.072 115.824L447.713 116.968C451.036 112.198 452.673 106.681 452.642 100.455L450.642 100.465ZM446.07 115.828C443.02 120.246 438.718 123.716 433.122 126.226L433.941 128.051C439.826 125.411 444.432 121.72 447.716 116.964L446.07 115.828ZM433.12 126.226C427.564 128.731 421.021 130 413.467 130V132C421.243 132 428.076 130.694 433.942 128.05L433.12 126.226ZM413.467 130H379.554V132H413.467V130ZM380.554 131V40.0909H378.554V131H380.554ZM379.554 41.0909H404.235V39.0909H379.554V41.0909ZM403.235 40.0909V111.646H405.235V40.0909H403.235ZM404.235 112.646H413.467V110.646H404.235V112.646ZM413.467 112.646C416.559 112.646 419.22 112.142 421.406 111.081L420.533 109.282C418.694 110.174 416.354 110.646 413.467 110.646V112.646ZM421.401 111.084C423.595 110.034 425.293 108.563 426.442 106.659L424.73 105.625C423.807 107.154 422.427 108.376 420.538 109.279L421.401 111.084ZM426.435 106.669C427.61 104.777 428.171 102.633 428.139 100.269L426.139 100.296C426.167 102.312 425.692 104.074 424.736 105.615L426.435 106.669ZM428.139 100.292C428.172 96.8933 426.893 94.04 424.335 91.8058L423.019 93.3121C425.137 95.1617 426.166 97.4575 426.139 100.273L428.139 100.292ZM424.34 91.8105C421.754 89.5191 418.076 88.4517 413.467 88.4517V90.4517C417.796 90.4517 420.924 91.4558 423.014 93.3074L424.34 91.8105ZM413.467 88.4517H394.646V90.4517H413.467V88.4517ZM395.646 89.4517V70.6307H393.646V89.4517H395.646ZM481.715 40.0909V131H483.715V40.0909H481.715ZM482.715 130H458.034V132H482.715V130ZM459.034 131V40.0909H457.034V131H459.034ZM458.034 41.0909H482.715V39.0909H458.034V41.0909Z" fill="#FDFDFD"/>
<path d="M101.213 64.1818H76.1775C75.9999 62.1103 75.5264 60.2312 74.757 58.5444C74.0172 56.8576 72.9814 55.4075 71.6498 54.1942C70.3477 52.9513 68.7645 52.0044 66.9001 51.3533C65.0358 50.6727 62.9199 50.3324 60.5525 50.3324C56.4095 50.3324 52.9027 51.3385 50.0322 53.3509C47.1913 55.3632 45.031 58.2485 43.5514 62.0067C42.1014 65.765 41.3763 70.2779 41.3763 75.5455C41.3763 81.1089 42.1162 85.7698 43.5958 89.5281C45.105 93.2567 47.2801 96.0681 50.121 97.962C52.9619 99.8263 56.3799 100.759 60.3749 100.759C62.6536 100.759 64.6955 100.477 66.5006 99.9151C68.3058 99.3233 69.8742 98.4799 71.2059 97.3849C72.5376 96.29 73.6177 94.9731 74.4463 93.4343C75.3045 91.8659 75.8815 90.1051 76.1775 88.152L101.213 88.3295C100.917 92.1766 99.8369 96.0977 97.9726 100.093C96.1082 104.058 93.4597 107.728 90.0269 111.101C86.6237 114.445 82.4068 117.138 77.376 119.18C72.3452 121.222 66.5006 122.243 59.8422 122.243C51.4971 122.243 44.0101 120.453 37.3813 116.872C30.7821 113.291 25.559 108.024 21.7119 101.069C17.8944 94.1149 15.9857 85.607 15.9857 75.5455C15.9857 65.4247 17.9388 56.902 21.8451 49.9773C25.7513 43.023 31.0189 37.7702 37.6476 34.2191C44.2764 30.6384 51.6746 28.848 59.8422 28.848C65.5832 28.848 70.8656 29.6322 75.6892 31.2006C80.5128 32.7691 84.7446 35.0625 88.3845 38.081C92.0244 41.0698 94.9541 44.7541 97.1736 49.1339C99.393 53.5136 100.739 58.5296 101.213 64.1818ZM168.429 121L140.553 84.2457H137.091V121H112.41V30.0909H137.091V64.3594H140.287L166.387 30.0909H197.46L162.836 73.7699L199.413 121H168.429ZM206.038 30.0909H230.718V77.6761H231.429L263.744 30.0909H284.696V121H260.015V73.2372H259.483L226.635 121H206.038V30.0909ZM293.352 121V102.001L295.837 101.646C298.856 101.173 301.357 99.8707 303.339 97.7401C305.352 95.5798 306.89 92.1618 307.956 87.4861C309.051 82.7809 309.746 76.3741 310.042 68.2656L311.462 30.0909H377.336V121H353.543V49.267H334.19L332.769 77.8537C332.237 88.4479 330.816 96.8967 328.508 103.2C326.2 109.503 322.693 114.046 317.988 116.827C313.282 119.609 307.083 121 299.389 121H293.352ZM404.646 60.6307H423.468C431.132 60.6307 437.82 61.8588 443.531 64.315C449.272 66.7712 453.726 70.2335 456.893 74.7021C460.089 79.1706 461.672 84.4233 461.642 90.4602C461.672 96.4972 460.089 101.809 456.893 106.396C453.726 110.983 449.272 114.564 443.531 117.138C437.82 119.713 431.132 121 423.468 121H389.554V30.0909H414.235V101.646H423.468C426.456 101.646 428.957 101.158 430.969 100.181C433.011 99.2049 434.55 97.8584 435.586 96.142C436.651 94.4257 437.169 92.4725 437.139 90.2827C437.169 87.1754 436.015 84.6009 433.677 82.5589C431.339 80.4875 427.936 79.4517 423.468 79.4517H404.646V60.6307ZM492.715 30.0909V121H468.034V30.0909H492.715Z" fill="#FDFDFD"/>
</svg>
