<svg width="750" height="161" viewBox="0 0 750 161" fill="none" xmlns="http://www.w3.org/2000/svg">
<path d="M100.447 112.357L101.446 112.383L101.473 111.357H100.447V112.357ZM99.3812 152.484V153.484H100.355L100.381 152.511L99.3812 152.484ZM76.4764 152.484H75.4764V153.484H76.4764V152.484ZM76.4764 131H77.4764V130H76.4764V131ZM70.0843 131H69.0843V132H70.0843V131ZM70.0843 112.357V111.357H69.0843V112.357H70.0843ZM5.98633 131H4.98633V132H5.98633V131ZM5.98633 40.0909V39.0909H4.98633V40.0909H5.98633ZM29.7789 40.0909H30.7789V39.0909H29.7789V40.0909ZM29.7789 112.001H28.7789V113.001H29.7789V112.001ZM61.5616 112.001V113.001H62.5616V112.001H61.5616ZM61.5616 40.0909V39.0909H60.5616V40.0909H61.5616ZM85.7093 40.0909H86.7093V39.0909H85.7093V40.0909ZM85.7093 131V132H86.7093V131H85.7093ZM99.4469 112.33L98.3816 152.458L100.381 152.511L101.446 112.383L99.4469 112.33ZM99.3812 151.484H76.4764V153.484H99.3812V151.484ZM77.4764 152.484V131H75.4764V152.484H77.4764ZM76.4764 130H70.0843V132H76.4764V130ZM71.0843 131V112.357H69.0843V131H71.0843ZM70.0843 113.357H100.447V111.357H70.0843V113.357ZM6.98633 131V40.0909H4.98633V131H6.98633ZM5.98633 41.0909H29.7789V39.0909H5.98633V41.0909ZM28.7789 40.0909V112.001H30.7789V40.0909H28.7789ZM29.7789 113.001H61.5616V111.001H29.7789V113.001ZM62.5616 112.001V40.0909H60.5616V112.001H62.5616ZM61.5616 41.0909H85.7093V39.0909H61.5616V41.0909ZM84.7093 40.0909V131H86.7093V40.0909H84.7093ZM85.7093 130H5.98633V132H85.7093V130ZM108.77 131H107.77V132H108.77V131ZM108.77 40.0909V39.0909H107.77V40.0909H108.77ZM174.288 40.0909H175.288V39.0909H174.288V40.0909ZM174.288 59.9773V60.9773H175.288V59.9773H174.288ZM133.45 59.9773V58.9773H132.45V59.9773H133.45ZM133.45 75.6023H132.45V76.6023H133.45V75.6023ZM170.914 75.6023H171.914V74.6023H170.914V75.6023ZM170.914 95.4886V96.4886H171.914V95.4886H170.914ZM133.45 95.4886V94.4886H132.45V95.4886H133.45ZM133.45 111.114H132.45V112.114H133.45V111.114ZM174.11 111.114H175.11V110.114H174.11V111.114ZM174.11 131V132H175.11V131H174.11ZM109.77 131V40.0909H107.77V131H109.77ZM108.77 41.0909H174.288V39.0909H108.77V41.0909ZM173.288 40.0909V59.9773H175.288V40.0909H173.288ZM174.288 58.9773H133.45V60.9773H174.288V58.9773ZM132.45 59.9773V75.6023H134.45V59.9773H132.45ZM133.45 76.6023H170.914V74.6023H133.45V76.6023ZM169.914 75.6023V95.4886H171.914V75.6023H169.914ZM170.914 94.4886H133.45V96.4886H170.914V94.4886ZM132.45 95.4886V111.114H134.45V95.4886H132.45ZM133.45 112.114H174.11V110.114H133.45V112.114ZM173.11 111.114V131H175.11V111.114H173.11ZM174.11 130H108.77V132H174.11V130ZM186.528 131H185.528V132H186.528V131ZM186.528 40.0909V39.0909H185.528V40.0909H186.528ZM211.209 40.0909H212.209V39.0909H211.209V40.0909ZM211.209 75.6023H210.209V76.6023H211.209V75.6023ZM243.879 75.6023V76.6023H244.879V75.6023H243.879ZM243.879 40.0909V39.0909H242.879V40.0909H243.879ZM268.56 40.0909H269.56V39.0909H268.56V40.0909ZM268.56 131V132H269.56V131H268.56ZM243.879 131H242.879V132H243.879V131ZM243.879 95.4886H244.879V94.4886H243.879V95.4886ZM211.209 95.4886V94.4886H210.209V95.4886H211.209ZM211.209 131V132H212.209V131H211.209ZM187.528 131V40.0909H185.528V131H187.528ZM186.528 41.0909H211.209V39.0909H186.528V41.0909ZM210.209 40.0909V75.6023H212.209V40.0909H210.209ZM211.209 76.6023H243.879V74.6023H211.209V76.6023ZM244.879 75.6023V40.0909H242.879V75.6023H244.879ZM243.879 41.0909H268.56V39.0909H243.879V41.0909ZM267.56 40.0909V131H269.56V40.0909H267.56ZM268.56 130H243.879V132H268.56V130ZM244.879 131V95.4886H242.879V131H244.879ZM243.879 94.4886H211.209V96.4886H243.879V94.4886ZM210.209 95.4886V131H212.209V95.4886H210.209ZM211.209 130H186.528V132H211.209V130ZM280.278 131H279.278V132H280.278V131ZM280.278 40.0909V39.0909H279.278V40.0909H280.278ZM304.959 40.0909H305.959V39.0909H304.959V40.0909ZM304.959 75.6023H303.959V76.6023H304.959V75.6023ZM337.629 75.6023V76.6023H338.629V75.6023H337.629ZM337.629 40.0909V39.0909H336.629V40.0909H337.629ZM362.31 40.0909H363.31V39.0909H362.31V40.0909ZM362.31 131V132H363.31V131H362.31ZM337.629 131H336.629V132H337.629V131ZM337.629 95.4886H338.629V94.4886H337.629V95.4886ZM304.959 95.4886V94.4886H303.959V95.4886H304.959ZM304.959 131V132H305.959V131H304.959ZM281.278 131V40.0909H279.278V131H281.278ZM280.278 41.0909H304.959V39.0909H280.278V41.0909ZM303.959 40.0909V75.6023H305.959V40.0909H303.959ZM304.959 76.6023H337.629V74.6023H304.959V76.6023ZM338.629 75.6023V40.0909H336.629V75.6023H338.629ZM337.629 41.0909H362.31V39.0909H337.629V41.0909ZM361.31 40.0909V131H363.31V40.0909H361.31ZM362.31 130H337.629V132H362.31V130ZM338.629 131V95.4886H336.629V131H338.629ZM337.629 94.4886H304.959V96.4886H337.629V94.4886ZM303.959 95.4886V131H305.959V95.4886H303.959ZM304.959 130H280.278V132H304.959V130ZM456.193 111.158L457.062 111.652L457.063 111.651L456.193 111.158ZM440.257 126.916L440.726 127.799L440.729 127.798L440.257 126.916ZM395.424 126.872L394.947 127.751L394.952 127.753L395.424 126.872ZM379.533 111.069L378.661 111.559L378.663 111.563L379.533 111.069ZM379.533 59.9773L378.662 59.4847L378.662 59.486L379.533 59.9773ZM395.424 44.2191L395.895 45.1015L395.896 45.1007L395.424 44.2191ZM440.257 44.2191L439.785 45.1007L439.788 45.1023L440.257 44.2191ZM456.193 59.9773L455.322 60.4698L455.323 60.4714L456.193 59.9773ZM434.531 71.7848L433.595 72.1384L433.599 72.1472L434.531 71.7848ZM428.183 63.2621L427.608 64.0805L427.618 64.0874L428.183 63.2621ZM407.542 63.2621L408.111 64.0846L408.113 64.0833L407.542 63.2621ZM401.195 71.7848L400.262 71.4248L400.26 71.4288L401.195 71.7848ZM401.195 99.3505L400.259 99.7041L400.263 99.7129L401.195 99.3505ZM407.542 107.873L406.967 108.692L406.977 108.699L407.542 107.873ZM428.183 107.873L428.752 108.696L428.754 108.694L428.183 107.873ZM434.531 99.3505L433.598 98.9905L433.596 98.9945L434.531 99.3505ZM461.096 85.5455C461.096 95.5388 459.153 103.896 455.322 110.665L457.063 111.651C461.104 104.511 463.096 95.7936 463.096 85.5455H461.096ZM455.323 110.664C451.476 117.433 446.298 122.547 439.785 126.035L440.729 127.798C447.592 124.123 453.038 118.732 457.062 111.652L455.323 110.664ZM439.788 126.033C433.257 129.501 425.963 131.243 417.885 131.243V133.243C426.261 133.243 433.881 131.434 440.726 127.799L439.788 126.033ZM417.885 131.243C409.748 131.243 402.426 129.486 395.896 125.99L394.952 127.753C401.798 131.419 409.45 133.243 417.885 133.243V131.243ZM395.901 125.993C389.415 122.476 384.25 117.346 380.402 110.575L378.663 111.563C382.686 118.642 388.116 124.047 394.947 127.751L395.901 125.993ZM380.404 110.58C376.601 103.809 374.673 95.4795 374.673 85.5455H372.673C372.673 95.7345 374.651 104.421 378.661 111.559L380.404 110.58ZM374.673 85.5455C374.673 75.5508 376.602 67.2078 380.404 60.4686L378.662 59.486C374.651 66.5962 372.673 75.2986 372.673 85.5455H374.673ZM380.403 60.4698C384.251 53.6706 389.414 48.5579 395.895 45.1015L394.953 43.3368C388.117 46.9826 382.686 52.3754 378.662 59.4847L380.403 60.4698ZM395.896 45.1007C402.426 41.6047 409.748 39.848 417.885 39.848V37.848C409.45 37.848 401.798 39.672 394.952 43.3375L395.896 45.1007ZM417.885 39.848C425.961 39.848 433.254 41.6042 439.785 45.1007L440.729 43.3375C433.884 39.6726 426.262 37.848 417.885 37.848V39.848ZM439.788 45.1023C446.298 48.5591 451.475 53.6717 455.322 60.4698L457.063 59.4847C453.039 52.3742 447.592 46.9814 440.726 43.3359L439.788 45.1023ZM455.323 60.4714C459.153 67.21 461.096 75.5519 461.096 85.5455H463.096C463.096 75.2975 461.104 66.594 457.062 59.4831L455.323 60.4714ZM437.706 85.5455C437.706 80.0183 436.971 75.3001 435.463 71.4224L433.599 72.1472C434.991 75.7269 435.706 80.1825 435.706 85.5455H437.706ZM435.466 71.4313C433.987 67.5167 431.757 64.4955 428.748 62.4368L427.618 64.0874C430.232 65.8757 432.234 68.5363 433.595 72.1383L435.466 71.4313ZM428.758 62.4437C425.776 60.3502 422.132 59.3324 417.885 59.3324V61.3324C421.805 61.3324 425.027 62.2677 427.609 64.0805L428.758 62.4437ZM417.885 59.3324C413.637 59.3324 409.981 60.3503 406.972 62.4408L408.113 64.0833C410.726 62.2676 413.965 61.3324 417.885 61.3324V59.3324ZM406.973 62.4396C403.997 64.4976 401.77 67.5158 400.262 71.4248L402.127 72.1448C403.519 68.5372 405.524 65.8736 408.111 64.0846L406.973 62.4396ZM400.26 71.4288C398.784 75.3044 398.064 80.0201 398.064 85.5455H400.064C400.064 80.1806 400.764 75.7226 402.129 72.1408L400.26 71.4288ZM398.064 85.5455C398.064 91.0712 398.784 95.8005 400.259 99.704L402.13 98.997C400.764 95.3839 400.064 90.9099 400.064 85.5455H398.064ZM400.263 99.7129C401.771 103.592 403.997 106.606 406.968 108.692L408.117 107.055C405.523 105.234 403.518 102.566 402.127 98.9881L400.263 99.7129ZM406.977 108.699C409.986 110.757 413.64 111.759 417.885 111.759V109.759C413.962 109.759 410.721 108.837 408.107 107.048L406.977 108.699ZM417.885 111.759C422.129 111.759 425.771 110.757 428.752 108.696L427.614 107.051C425.032 108.836 421.808 109.759 417.885 109.759V111.759ZM428.754 108.694C431.756 106.608 433.985 103.591 435.465 99.7065L433.596 98.9945C432.235 102.567 430.232 105.232 427.613 107.052L428.754 108.694ZM435.464 99.7105C436.971 95.8047 437.706 91.073 437.706 85.5455H435.706C435.706 90.908 434.991 95.3797 433.598 98.9905L435.464 99.7105ZM558.388 74.1818V75.1818H559.475L559.384 74.0983L558.388 74.1818ZM533.352 74.1818L532.356 74.2672L532.434 75.1818H533.352V74.1818ZM531.932 68.5444L531.016 68.946L531.019 68.9527L531.022 68.9594L531.932 68.5444ZM528.825 64.1942L528.134 64.9176L528.143 64.9256L528.151 64.9334L528.825 64.1942ZM524.075 61.3533L523.732 62.2928L523.745 62.2974L524.075 61.3533ZM507.207 63.3509L506.633 62.532L506.629 62.5348L507.207 63.3509ZM500.726 72.0067L499.796 71.6404L499.793 71.6468L500.726 72.0067ZM500.771 99.5281L499.84 99.8944L499.844 99.9032L500.771 99.5281ZM507.296 107.962L506.741 108.794L506.747 108.798L507.296 107.962ZM523.675 109.915L523.973 110.87L523.98 110.868L523.987 110.865L523.675 109.915ZM528.381 107.385L529.016 108.157L528.381 107.385ZM531.621 103.434L530.744 102.954L530.741 102.96L531.621 103.434ZM533.352 98.152L533.359 97.152L532.493 97.1459L532.364 98.0022L533.352 98.152ZM558.388 98.3295L559.385 98.4062L559.467 97.3372L558.395 97.3296L558.388 98.3295ZM555.147 110.093L556.052 110.518L556.054 110.516L555.147 110.093ZM547.202 121.101L547.903 121.814L547.903 121.814L547.202 121.101ZM534.551 129.18L534.175 128.253L534.551 129.18ZM494.556 126.872L494.079 127.751L494.081 127.752L494.556 126.872ZM478.887 111.069L478.01 111.55L478.012 111.553L478.887 111.069ZM479.02 59.9773L479.891 60.4686L479.892 60.467L479.02 59.9773ZM494.822 44.2191L495.295 45.1006L495.298 45.0989L494.822 44.2191ZM532.864 41.2006L533.173 40.2496L532.864 41.2006ZM545.559 48.081L544.921 48.8507L544.925 48.8538L545.559 48.081ZM554.348 59.1339L553.456 59.5859L554.348 59.1339ZM558.388 73.1818H533.352V75.1818H558.388V73.1818ZM534.349 74.0964C534.162 71.9246 533.664 69.9321 532.842 68.1294L531.022 68.9594C531.739 70.5302 532.187 72.296 532.356 74.2672L534.349 74.0964ZM532.848 68.1427C532.053 66.3307 530.936 64.7648 529.498 63.455L528.151 64.9334C529.377 66.0503 530.331 67.3845 531.016 68.946L532.848 68.1427ZM529.515 63.4709C528.1 62.1203 526.39 61.1027 524.405 60.4092L523.745 62.2974C525.488 62.9061 526.945 63.7824 528.134 64.9176L529.515 63.4709ZM524.418 60.414C522.425 59.6863 520.19 59.3324 517.727 59.3324V61.3324C520 61.3324 521.996 61.6591 523.732 62.2927L524.418 60.414ZM517.727 59.3324C513.417 59.3324 509.701 60.3816 506.633 62.532L507.781 64.1697C510.455 62.2955 513.751 61.3324 517.727 61.3324V59.3324ZM506.629 62.5348C503.605 64.6767 501.335 67.7308 499.796 71.6404L501.657 72.3731C503.077 68.7661 505.127 66.0496 507.785 64.1669L506.629 62.5348ZM499.793 71.6468C498.288 75.5492 497.551 80.1907 497.551 85.5455H499.551C499.551 80.3651 500.265 75.9809 501.659 72.3667L499.793 71.6468ZM497.551 85.5455C497.551 91.1902 498.301 95.9844 499.84 99.8944L501.701 99.1617C500.281 95.5551 499.551 91.0276 499.551 85.5455H497.551ZM499.844 99.9032C501.415 103.784 503.705 106.77 506.741 108.794L507.851 107.13C505.205 105.366 503.145 102.729 501.698 99.1529L499.844 99.9032ZM506.747 108.798C509.778 110.787 513.395 111.759 517.55 111.759V109.759C513.715 109.759 510.495 108.866 507.844 107.126L506.747 108.798ZM517.55 111.759C519.909 111.759 522.054 111.468 523.973 110.87L523.378 108.96C521.687 109.487 519.747 109.759 517.55 109.759V111.759ZM523.987 110.865C525.898 110.239 527.579 109.339 529.016 108.157L527.746 106.613C526.519 107.621 525.063 108.408 523.364 108.965L523.987 110.865ZM529.016 108.157C530.449 106.979 531.612 105.56 532.502 103.908L530.741 102.96C529.973 104.386 528.975 105.601 527.746 106.613L529.016 108.157ZM532.498 103.914C533.418 102.233 534.029 100.359 534.341 98.3018L532.364 98.0022C532.083 99.8517 531.54 101.499 530.744 102.954L532.498 103.914ZM533.345 99.152L558.381 99.3295L558.395 97.3296L533.359 97.152L533.345 99.152ZM557.391 98.2528C557.105 101.964 556.062 105.768 554.241 109.67L556.054 110.516C557.962 106.427 559.078 102.389 559.385 98.4062L557.391 98.2528ZM554.242 109.667C552.433 113.515 549.857 117.089 546.501 120.388L547.903 121.814C551.412 118.366 554.133 114.601 556.052 110.518L554.242 109.667ZM546.501 120.388C543.203 123.628 539.101 126.254 534.175 128.253L534.927 130.107C540.062 128.022 544.394 125.262 547.903 121.814L546.501 120.388ZM534.175 128.253C529.287 130.237 523.575 131.243 517.017 131.243V133.243C523.776 133.243 529.753 132.207 534.927 130.107L534.175 128.253ZM517.017 131.243C508.82 131.243 501.499 129.486 495.031 125.992L494.081 127.752C500.871 131.419 508.524 133.243 517.017 133.243V131.243ZM495.033 125.993C488.611 122.509 483.522 117.383 479.762 110.585L478.012 111.553C481.945 118.664 487.302 124.074 494.079 127.751L495.033 125.993ZM479.763 110.588C476.046 103.816 474.161 95.483 474.161 85.5455H472.161C472.161 95.731 474.093 104.414 478.01 111.55L479.763 110.588ZM474.161 85.5455C474.161 75.5508 476.089 67.2078 479.891 60.4686L478.149 59.486C474.138 66.5962 472.161 75.2986 472.161 85.5455H474.161ZM479.892 60.467C483.711 53.6681 488.844 48.5563 495.295 45.1006L494.35 43.3376C487.543 46.9842 482.142 52.3778 478.148 59.4875L479.892 60.467ZM495.298 45.0989C501.768 41.6036 509.001 39.848 517.017 39.848V37.848C508.698 37.848 501.134 39.6731 494.347 43.3393L495.298 45.0989ZM517.017 39.848C522.667 39.848 527.843 40.6196 532.555 42.1516L533.173 40.2496C528.238 38.6448 522.849 37.848 517.017 37.848V39.848ZM532.555 42.1516C537.267 43.6838 541.385 45.9186 544.921 48.8507L546.198 47.3112C542.454 44.2064 538.108 41.8543 533.173 40.2496L532.555 42.1516ZM544.925 48.8538C548.453 51.751 551.297 55.3244 553.456 59.5859L555.24 58.6818C552.961 54.1839 549.945 50.3887 546.194 47.3081L544.925 48.8538ZM553.456 59.5859C555.609 63.8343 556.927 68.7218 557.391 74.2653L559.384 74.0983C558.902 68.3374 557.526 63.193 555.24 58.6818L553.456 59.5859ZM567.099 59.9773H566.099V60.9773H567.099V59.9773ZM567.099 40.0909V39.0909H566.099V40.0909H567.099ZM646.112 40.0909H647.112V39.0909H646.112V40.0909ZM646.112 59.9773V60.9773H647.112V59.9773H646.112ZM618.768 59.9773V58.9773H617.768V59.9773H618.768ZM618.768 131V132H619.768V131H618.768ZM594.443 131H593.443V132H594.443V131ZM594.443 59.9773H595.443V58.9773H594.443V59.9773ZM568.099 59.9773V40.0909H566.099V59.9773H568.099ZM567.099 41.0909H646.112V39.0909H567.099V41.0909ZM645.112 40.0909V59.9773H647.112V40.0909H645.112ZM646.112 58.9773H618.768V60.9773H646.112V58.9773ZM617.768 59.9773V131H619.768V59.9773H617.768ZM618.768 130H594.443V132H618.768V130ZM595.443 131V59.9773H593.443V131H595.443ZM594.443 58.9773H567.099V60.9773H594.443V58.9773ZM655.4 40.0909V39.0909H654.4V40.0909H655.4ZM680.081 40.0909H681.081V39.0909H680.081V40.0909ZM680.081 87.6761H679.081V88.6761H680.081V87.6761ZM680.791 87.6761V88.6761H681.321L681.618 88.2379L680.791 87.6761ZM713.106 40.0909V39.0909H712.577L712.279 39.5291L713.106 40.0909ZM734.058 40.0909H735.058V39.0909H734.058V40.0909ZM734.058 131V132H735.058V131H734.058ZM709.378 131H708.378V132H709.378V131ZM709.378 83.2372H710.378V82.2372H709.378V83.2372ZM708.845 83.2372V82.2372H708.319L708.021 82.6706L708.845 83.2372ZM675.997 131V132H676.523L676.821 131.567L675.997 131ZM655.4 131H654.4V132H655.4V131ZM655.4 41.0909H680.081V39.0909H655.4V41.0909ZM679.081 40.0909V87.6761H681.081V40.0909H679.081ZM680.081 88.6761H680.791V86.6761H680.081V88.6761ZM681.618 88.2379L713.934 40.6527L712.279 39.5291L679.964 87.1143L681.618 88.2379ZM713.106 41.0909H734.058V39.0909H713.106V41.0909ZM733.058 40.0909V131H735.058V40.0909H733.058ZM734.058 130H709.378V132H734.058V130ZM710.378 131V83.2372H708.378V131H710.378ZM709.378 82.2372H708.845V84.2372H709.378V82.2372ZM708.021 82.6706L675.173 130.433L676.821 131.567L709.669 83.8039L708.021 82.6706ZM675.997 130H655.4V132H675.997V130ZM656.4 131V40.0909H654.4V131H656.4Z" fill="#FDFDFD"/>
<path d="M110.447 102.357L109.381 142.484H86.4764V121H80.0843V102.357H110.447ZM15.9863 121V30.0909H39.7789V102.001H71.5616V30.0909H95.7093V121H15.9863ZM118.77 121V30.0909H184.288V49.9773H143.45V65.6023H180.914V85.4886H143.45V101.114H184.11V121H118.77ZM196.528 121V30.0909H221.209V65.6023H253.879V30.0909H278.56V121H253.879V85.4886H221.209V121H196.528ZM290.278 121V30.0909H314.959V65.6023H347.629V30.0909H372.31V121H347.629V85.4886H314.959V121H290.278ZM472.097 75.5455C472.097 85.6662 470.129 94.2037 466.193 101.158C462.257 108.083 456.945 113.335 450.257 116.916C443.569 120.467 436.112 122.243 427.885 122.243C419.599 122.243 412.112 120.453 405.424 116.872C398.766 113.261 393.468 107.994 389.533 101.069C385.626 94.1149 383.673 85.607 383.673 75.5455C383.673 65.4247 385.626 56.902 389.533 49.9773C393.468 43.023 398.766 37.7702 405.424 34.2191C412.112 30.6384 419.599 28.848 427.885 28.848C436.112 28.848 443.569 30.6384 450.257 34.2191C456.945 37.7702 462.257 43.023 466.193 49.9773C470.129 56.902 472.097 65.4247 472.097 75.5455ZM446.706 75.5455C446.706 70.1004 445.981 65.5135 444.531 61.7848C443.11 58.0265 440.994 55.1856 438.183 53.2621C435.401 51.3089 431.969 50.3324 427.885 50.3324C423.801 50.3324 420.353 51.3089 417.542 53.2621C414.76 55.1856 412.645 58.0265 411.195 61.7848C409.774 65.5135 409.064 70.1004 409.064 75.5455C409.064 80.9905 409.774 85.5922 411.195 89.3505C412.645 93.0792 414.76 95.9201 417.542 97.8732C420.353 99.7968 423.801 100.759 427.885 100.759C431.969 100.759 435.401 99.7968 438.183 97.8732C440.994 95.9201 443.11 93.0792 444.531 89.3505C445.981 85.5922 446.706 80.9905 446.706 75.5455ZM568.388 64.1818H543.352C543.175 62.1103 542.701 60.2312 541.932 58.5444C541.192 56.8576 540.156 55.4075 538.825 54.1942C537.522 52.9513 535.939 52.0044 534.075 51.3533C532.211 50.6727 530.095 50.3324 527.727 50.3324C523.584 50.3324 520.078 51.3385 517.207 53.3509C514.366 55.3632 512.206 58.2485 510.726 62.0067C509.276 65.765 508.551 70.2779 508.551 75.5455C508.551 81.1089 509.291 85.7698 510.771 89.5281C512.28 93.2567 514.455 96.0681 517.296 97.962C520.137 99.8263 523.555 100.759 527.55 100.759C529.828 100.759 531.87 100.477 533.675 99.9151C535.481 99.3233 537.049 98.4799 538.381 97.3849C539.712 96.29 540.792 94.9731 541.621 93.4343C542.479 91.8659 543.056 90.1051 543.352 88.152L568.388 88.3295C568.092 92.1766 567.012 96.0977 565.147 100.093C563.283 104.058 560.634 107.728 557.202 111.101C553.799 114.445 549.582 117.138 544.551 119.18C539.52 121.222 533.675 122.243 527.017 122.243C518.672 122.243 511.185 120.453 504.556 116.872C497.957 113.291 492.734 108.024 488.887 101.069C485.069 94.1149 483.161 85.607 483.161 75.5455C483.161 65.4247 485.114 56.902 489.02 49.9773C492.926 43.023 498.194 37.7702 504.822 34.2191C511.451 30.6384 518.849 28.848 527.017 28.848C532.758 28.848 538.04 29.6322 542.864 31.2006C547.688 32.7691 551.919 35.0625 555.559 38.081C559.199 41.0698 562.129 44.7541 564.348 49.1339C566.568 53.5136 567.914 58.5296 568.388 64.1818ZM577.099 49.9773V30.0909H656.112V49.9773H628.768V121H604.443V49.9773H577.099ZM665.4 30.0909H690.081V77.6761H690.791L723.106 30.0909H744.058V121H719.378V73.2372H718.845L685.997 121H665.4V30.0909Z" fill="#FDFDFD"/>
</svg>
